<?xml version="1.0" encoding="UTF-8" standalone="no"?>
<!-- Created with Inkscape (http://www.inkscape.org/) -->

<svg
   width="90mm"
   height="90mm"
   viewBox="0 0 90 89.999994"
   version="1.1"
   id="svg1"
   xml:space="preserve"
   inkscape:version="1.4.3 (0d15f75, 2025-12-25)"
   sodipodi:docname="home.svg"
   inkscape:export-filename="speak.png"
   inkscape:export-xdpi="96"
   inkscape:export-ydpi="96"
   xmlns:inkscape="http://www.inkscape.org/namespaces/inkscape"
   xmlns:sodipodi="http://sodipodi.sourceforge.net/DTD/sodipodi-0.dtd"
   xmlns="http://www.w3.org/2000/svg"
   xmlns:svg="http://www.w3.org/2000/svg"><sodipodi:namedview
     id="namedview1"
     pagecolor="#ffffff"
     bordercolor="#000000"
     borderopacity="0.25"
     inkscape:showpageshadow="2"
     inkscape:pageopacity="0.0"
     inkscape:pagecheckerboard="0"
     inkscape:deskcolor="#d1d1d1"
     inkscape:document-units="mm"
     showgrid="true"
     inkscape:zoom="0.44097222"
     inkscape:cx="443.33858"
     inkscape:cy="561.25984"
     inkscape:window-width="1366"
     inkscape:window-height="697"
     inkscape:window-x="-8"
     inkscape:window-y="-8"
     inkscape:window-maximized="1"
     inkscape:current-layer="layer1" /><defs
     id="defs1" /><g
     inkscape:label="Capa 1"
     inkscape:groupmode="layer"
     id="layer1"><g
       id="g126"
       transform="matrix(0.6974135,0,0,0.6974135,-99.5424,-54.487249)"><path
         style="fill:#f3c250"
         d="m 158.08403,199.9375 -0.70556,-0.70556 V 173.0657 146.89945 l 1.32292,-1.15978 c 0.7276,-0.63789 5.13291,-4.0721 9.78958,-7.63159 4.65667,-3.55949 12.91167,-9.88611 18.34444,-14.05914 5.43278,-4.17304 11.9031,-9.12527 14.37848,-11.00495 l 4.50069,-3.4176 h 0.7 0.7 l 4.50069,3.41889 c 2.47539,1.88039 11.64445,8.91176 20.3757,15.62526 8.73125,6.71349 17.48138,13.42004 19.44474,14.90342 4.49564,3.39663 4.01498,-0.16584 4.01498,29.75767 v 25.90031 l -0.70555,0.70556 -0.70556,0.70555 h -47.625 -47.625 z m -8.86191,-56.72463 -1.88692,-0.98574 -1.03606,-1.67578 -1.03606,-1.67578 -0.16036,-1.93372 -0.16036,-1.93372 0.57988,-1.51837 c 0.75398,-1.97428 1.38297,-2.55318 9.84396,-9.06 l 7.12755,-5.48136 0.087,-10.74642 0.087,-10.746426 0.74588,-0.617361 0.74588,-0.617361 h 6.99128 6.99127 l 0.55437,0.554365 0.55436,0.554365 v 4.208138 c 0,2.31447 0.085,4.20813 0.18895,4.20813 0.10391,0 6.07352,-4.52437 13.2658,-10.054165 l 13.07685,-10.054167 h 0.62838 0.62838 l 10.1829,7.822016 c 5.6006,4.302108 13.99291,10.762846 18.64958,14.357196 4.65666,3.59434 12.99104,10.01295 18.52083,14.26356 11.68558,8.98241 11.87617,9.1471 12.73674,11.00584 l 0.65332,1.41111 0.008,1.78883 0.008,1.78882 -0.97013,1.91363 -0.97014,1.91362 -1.73623,1.06005 -1.73622,1.06005 h -2.70116 -2.70117 l -1.62562,-1.05833 c -0.8941,-0.58209 -3.2629,-2.33462 -5.264,-3.89451 -2.00111,-1.5599 -10.94088,-8.45197 -19.86616,-15.31571 -8.92528,-6.86374 -17.94655,-13.81189 -20.04726,-15.44034 l -3.81949,-2.96081 -1.47218,1.2016 c -0.8097,0.66088 -4.8853,3.81494 -9.0569,7.00902 -11.66996,8.93537 -20.64037,15.83312 -29.89792,22.98984 -4.64996,3.59474 -9.05207,6.78557 -9.78247,7.09075 l -1.328,0.55488 h -1.85691 -1.85691 z"
         id="path133" /><path
         style="fill:#9f9d9b"
         d="m 158.08403,199.9375 -0.70556,-0.70556 V 173.0657 146.89945 l 1.32292,-1.15978 c 0.7276,-0.63789 5.13291,-4.0721 9.78958,-7.63159 4.65667,-3.55949 12.91167,-9.88611 18.34444,-14.05914 5.43278,-4.17304 11.9031,-9.12527 14.37848,-11.00495 l 4.50069,-3.4176 h 0.7 0.7 l 4.50069,3.41889 c 2.47539,1.88039 11.64445,8.91176 20.3757,15.62526 8.73125,6.71349 17.48138,13.42004 19.44474,14.90342 4.49564,3.39663 4.01498,-0.16584 4.01498,29.75767 v 25.90031 l -0.70555,0.70556 -0.70556,0.70555 h -47.625 -47.625 z m 33.42854,-24.14065 0.091,-20.78925 0.58099,-0.642 0.581,-0.64199 h 13.58769 13.58768 l 0.64514,0.58384 0.64514,0.58385 v 20.9356 20.9356 h 14.99549 14.99548 l -0.0906,-24.23513 -0.0906,-24.23514 -3.70417,-2.86516 c -8.1956,-6.33928 -37.33766,-28.65886 -39.06169,-29.91693 l -1.84364,-1.34534 -2.21331,1.61026 c -1.21731,0.88565 -4.52661,3.39669 -7.35399,5.5801 -2.82739,2.18341 -8.36664,6.43046 -12.30945,9.43789 -6.87337,5.24276 -14.38322,11.03014 -20.20889,15.57377 l -2.73403,2.13236 v 24.14095 24.14095 l 14.90486,-0.0975 14.90487,-0.0975 z m -42.29045,-32.58398 -1.88692,-0.98574 -1.03606,-1.67578 -1.03606,-1.67578 -0.16036,-1.93372 -0.16036,-1.93372 0.57988,-1.51837 c 0.75398,-1.97428 1.38297,-2.55318 9.84396,-9.06 l 7.12755,-5.48136 0.087,-10.74642 0.087,-10.746426 0.74588,-0.617361 0.74588,-0.617361 h 6.99128 6.99127 l 0.55437,0.554365 0.55436,0.554365 v 4.208138 c 0,2.31447 0.085,4.20813 0.18895,4.20813 0.10391,0 6.07352,-4.52437 13.2658,-10.054165 l 13.07685,-10.054167 h 0.62838 0.62838 l 10.1829,7.822016 c 5.6006,4.302108 13.99291,10.762846 18.64958,14.357196 4.65666,3.59434 12.99104,10.01295 18.52083,14.26356 11.68558,8.98241 11.87617,9.1471 12.73674,11.00584 l 0.65332,1.41111 0.008,1.78883 0.008,1.78882 -0.97013,1.91363 -0.97014,1.91362 -1.73623,1.06005 -1.73622,1.06005 h -2.70116 -2.70117 l -1.62562,-1.05833 c -0.8941,-0.58209 -3.2629,-2.33462 -5.264,-3.89451 -2.00111,-1.5599 -10.94088,-8.45197 -19.86616,-15.31571 -8.92528,-6.86374 -17.94655,-13.81189 -20.04726,-15.44034 l -3.81949,-2.96081 -1.47218,1.2016 c -0.8097,0.66088 -4.8853,3.81494 -9.0569,7.00902 -11.66996,8.93537 -20.64037,15.83312 -29.89792,22.98984 -4.64996,3.59474 -9.05207,6.78557 -9.78247,7.09075 l -1.328,0.55488 h -1.85691 -1.85691 z m 106.93413,-4.83509 c 0,-0.097 -0.0794,-0.17639 -0.17639,-0.17639 -0.097,0 -0.17639,0.0794 -0.17639,0.17639 0,0.097 0.0794,0.17639 0.17639,0.17639 0.097,0 0.17639,-0.0794 0.17639,-0.17639 z m 7.40833,-3.85974 c 0,-0.0856 -0.18328,-0.26884 -0.40728,-0.40728 l -0.40729,-0.25172 0.25172,0.40728 c 0.25133,0.40667 0.56285,0.54599 0.56285,0.25172 z m -1.05833,-1.07915 c 0,-0.097 -0.0794,-0.17639 -0.17639,-0.17639 -0.097,0 -0.17639,0.0794 -0.17639,0.17639 0,0.097 0.0794,0.17639 0.17639,0.17639 0.097,0 0.17639,-0.0794 0.17639,-0.17639 z m -6.35,-4.91807 c 0,-0.0856 -0.18328,-0.26884 -0.40729,-0.40729 l -0.40728,-0.25171 0.25171,0.40728 c 0.25134,0.40667 0.56286,0.54598 0.56286,0.25172 z m -1.41111,-1.05833 c 0,-0.0856 -0.18328,-0.26885 -0.40729,-0.40729 l -0.40728,-0.25172 0.25171,0.40729 c 0.25134,0.40666 0.56286,0.54598 0.56286,0.25172 z m -8.11389,-6.37082 c 0,-0.097 -0.0794,-0.17639 -0.17639,-0.17639 -0.097,0 -0.17639,0.0794 -0.17639,0.17639 0,0.097 0.0794,0.17638 0.17639,0.17638 0.097,0 0.17639,-0.0794 0.17639,-0.17638 z M 228.2868,106.98055 c 0,-0.097 -0.0794,-0.17638 -0.17639,-0.17638 -0.097,0 -0.17638,0.0794 -0.17638,0.17638 0,0.097 0.0794,0.17639 0.17638,0.17639 0.097,0 0.17639,-0.0794 0.17639,-0.17639 z m -1.05833,-0.70555 c 0,-0.097 -0.0794,-0.17639 -0.17639,-0.17639 -0.097,0 -0.17639,0.0794 -0.17639,0.17639 0,0.097 0.0794,0.17639 0.17639,0.17639 0.097,0 0.17639,-0.0794 0.17639,-0.17639 z m -51.85833,-5.64445 c 0,-0.097 -0.0794,-0.17638 -0.17639,-0.17638 -0.097,0 -0.17639,0.0794 -0.17639,0.17638 0,0.097 0.0794,0.17639 0.17639,0.17639 0.097,0 0.17639,-0.0794 0.17639,-0.17639 z m 43.74444,-0.705552 c 0,-0.09701 -0.0794,-0.176388 -0.17639,-0.176388 -0.097,0 -0.17639,0.07937 -0.17639,0.176388 0,0.09701 0.0794,0.176392 0.17639,0.176392 0.097,0 0.17639,-0.0794 0.17639,-0.176392 z"
         id="path132" /><path
         style="fill:#e2b042"
         d="m 158.12496,199.81044 -0.39823,-0.47984 0.0905,-26.41156 0.0905,-26.41155 7.23194,-5.58425 c 25.18031,-19.44335 40.81254,-31.29685 41.27384,-31.29685 0.43023,0 9.98007,7.21319 32.10394,24.24878 l 16.40417,12.63136 0.0905,26.41203 0.0905,26.41204 -0.39823,0.47984 -0.39823,0.47984 H 206.41458 158.5232 Z m 33.38761,-24.01359 0.091,-20.78925 0.58099,-0.642 0.581,-0.64199 h 13.58769 13.58768 l 0.64514,0.58384 0.64514,0.58385 v 20.9356 20.9356 h 14.99549 14.99548 l -0.0906,-24.23513 -0.0906,-24.23514 -3.70417,-2.86516 c -8.1956,-6.33928 -37.33766,-28.65886 -39.06169,-29.91693 l -1.84364,-1.34534 -2.21331,1.61026 c -1.21731,0.88565 -4.52661,3.39669 -7.35399,5.5801 -2.82739,2.18341 -8.36664,6.43046 -12.30945,9.43789 -6.87337,5.24276 -14.38322,11.03014 -20.20889,15.57377 l -2.73403,2.13236 v 24.14095 24.14095 l 14.90486,-0.0975 14.90487,-0.0975 z M 150.5197,143.67222 c -2.66217,-0.94836 -4.43467,-2.86749 -5.16978,-5.59749 l -0.38538,-1.4312 0.22454,-1.40424 c 0.12351,-0.77233 0.57508,-2.02942 1.0035,-2.79354 l 0.77895,-1.38931 7.8493,-5.99726 7.84931,-5.99726 V 108.37213 97.68234 l 0.55436,-0.554365 0.55437,-0.554365 h 7.36231 7.36232 l 0.2854,0.440972 c 0.15697,0.242535 0.36478,2.387879 0.46179,4.767428 l 0.17639,4.32646 13.05278,-10.052105 13.05278,-10.052106 0.88194,-4.8e-5 0.88195,-4.8e-5 15.90524,12.252084 c 8.74789,6.738643 18.66976,14.389453 22.04861,17.001793 3.37885,2.61234 9.08024,6.99979 12.66976,9.7499 9.07126,6.94996 9.35723,7.26294 9.7625,10.68478 l 0.19977,1.68674 -0.76504,1.72948 c -0.93369,2.11077 -1.88047,3.16248 -3.72918,4.14246 l -1.41111,0.74802 -2.30352,-0.007 -2.30353,-0.007 -1.47152,-0.86306 c -0.80934,-0.47468 -3.90025,-2.75707 -6.8687,-5.07196 -5.75477,-4.48777 -13.91058,-10.77108 -31.50273,-24.26999 l -10.93611,-8.39156 -0.4253,0.16189 c -0.39461,0.15021 -2.97573,2.11591 -21.09414,16.06464 -3.68653,2.83813 -10.90966,8.39522 -16.05139,12.3491 -5.14174,3.95387 -9.9484,7.65302 -10.68147,8.22033 -2.38388,1.84483 -5.27401,2.39498 -7.81897,1.48838 z m 105.63655,-5.29444 c 0,-0.097 -0.0794,-0.17639 -0.17639,-0.17639 -0.097,0 -0.17639,0.0794 -0.17639,0.17639 0,0.097 0.0794,0.17639 0.17639,0.17639 0.097,0 0.17639,-0.0794 0.17639,-0.17639 z m 7.40833,-3.85974 c 0,-0.0856 -0.18328,-0.26884 -0.40728,-0.40728 l -0.40729,-0.25172 0.25172,0.40728 c 0.25133,0.40667 0.56285,0.54599 0.56285,0.25172 z m -1.05833,-1.07915 c 0,-0.097 -0.0794,-0.17639 -0.17639,-0.17639 -0.097,0 -0.17639,0.0794 -0.17639,0.17639 0,0.097 0.0794,0.17639 0.17639,0.17639 0.097,0 0.17639,-0.0794 0.17639,-0.17639 z m -6.35,-4.91807 c 0,-0.0856 -0.18328,-0.26884 -0.40729,-0.40729 l -0.40728,-0.25171 0.25171,0.40728 c 0.25134,0.40667 0.56286,0.54598 0.56286,0.25172 z m -1.41111,-1.05833 c 0,-0.0856 -0.18328,-0.26885 -0.40729,-0.40729 l -0.40728,-0.25172 0.25171,0.40729 c 0.25134,0.40666 0.56286,0.54598 0.56286,0.25172 z m -8.11389,-6.37082 c 0,-0.097 -0.0794,-0.17639 -0.17639,-0.17639 -0.097,0 -0.17639,0.0794 -0.17639,0.17639 0,0.097 0.0794,0.17638 0.17639,0.17638 0.097,0 0.17639,-0.0794 0.17639,-0.17638 z M 228.2868,106.98055 c 0,-0.097 -0.0794,-0.17638 -0.17639,-0.17638 -0.097,0 -0.17638,0.0794 -0.17638,0.17638 0,0.097 0.0794,0.17639 0.17638,0.17639 0.097,0 0.17639,-0.0794 0.17639,-0.17639 z m -1.05833,-0.70555 c 0,-0.097 -0.0794,-0.17639 -0.17639,-0.17639 -0.097,0 -0.17639,0.0794 -0.17639,0.17639 0,0.097 0.0794,0.17639 0.17639,0.17639 0.097,0 0.17639,-0.0794 0.17639,-0.17639 z m -51.85833,-5.64445 c 0,-0.097 -0.0794,-0.17638 -0.17639,-0.17638 -0.097,0 -0.17639,0.0794 -0.17639,0.17638 0,0.097 0.0794,0.17639 0.17639,0.17639 0.097,0 0.17639,-0.0794 0.17639,-0.17639 z m 43.74444,-0.705552 c 0,-0.09701 -0.0794,-0.176388 -0.17639,-0.176388 -0.097,0 -0.17639,0.07937 -0.17639,0.176388 0,0.09701 0.0794,0.176392 0.17639,0.176392 0.097,0 0.17639,-0.0794 0.17639,-0.176392 z"
         id="path131" /><path
         style="fill:#e1ae3d"
         d="m 158.12496,199.81044 -0.39823,-0.47984 0.0905,-26.41156 0.0905,-26.41155 7.23194,-5.58425 c 25.18031,-19.44335 40.81254,-31.29685 41.27384,-31.29685 0.43023,0 9.98007,7.21319 32.10394,24.24878 l 16.40417,12.63136 0.0905,26.41203 0.0905,26.41204 -0.39823,0.47984 -0.39823,0.47984 H 206.41458 158.5232 Z m 33.47295,-23.86183 v -20.81389 l 0.70556,-0.70555 0.70556,-0.70556 h 13.32706 13.32706 l 0.78405,0.54917 0.78405,0.54917 v 20.97027 20.97028 h 15.16944 15.16945 v -24.11956 -24.11956 l -5.73264,-4.37988 c -3.15295,-2.40893 -9.44076,-7.23169 -13.97292,-10.71724 -4.53215,-3.48556 -10.00904,-7.68675 -12.17086,-9.33598 -2.16182,-1.64924 -5.94066,-4.54643 -8.39742,-6.4382 -5.52921,-4.25765 -3.57983,-4.77993 -14.98856,4.01578 -2.35731,1.8174 -8.46918,6.50497 -13.58195,10.41683 -15.2854,11.69511 -17.67697,13.54682 -19.61468,15.18694 l -1.85208,1.56765 v 23.96161 23.96161 h 15.16944 15.16944 z m 19.40278,20.24767 c 0,-0.0766 -0.91281,-0.12818 -2.02847,-0.11454 l -2.02847,0.0248 0.62791,0.24811 c 0.61736,0.24394 3.42903,0.11409 3.42903,-0.15836 z m 2.57549,0.15713 c 0.70408,-0.0474 1.20919,-0.15716 1.12248,-0.24387 -0.0867,-0.0867 0.27608,-0.5307 0.80621,-0.98664 0.53013,-0.45594 0.7919,-0.82918 0.5817,-0.82942 -0.21019,-2.3e-4 -0.49124,0.10864 -0.62455,0.24195 -0.29252,0.29252 -1.16992,0.41991 -3.82355,0.55518 -2.11008,0.10755 -3.29754,0.61356 -1.43987,0.61356 h 1.07938 l 0.21164,0.55152 c 0.11641,0.30334 0.34547,0.46882 0.50904,0.36773 0.16357,-0.10109 0.87345,-0.2226 1.57752,-0.27001 z m -1.86993,-0.47286 c 0,-0.097 0.0794,-0.17638 0.17639,-0.17638 0.097,0 0.17639,0.0794 0.17639,0.17638 0,0.097 -0.0794,0.17639 -0.17639,0.17639 -0.097,0 -0.17639,-0.0794 -0.17639,-0.17639 z m 0.70555,0 c 0,-0.097 0.0794,-0.17638 0.17639,-0.17638 0.097,0 0.17639,0.0794 0.17639,0.17638 0,0.097 -0.0794,0.17639 -0.17639,0.17639 -0.097,0 -0.17639,-0.0794 -0.17639,-0.17639 z m 0.70556,0 c 0,-0.097 0.0794,-0.17638 0.17639,-0.17638 0.097,0 0.17639,0.0794 0.17639,0.17638 0,0.097 -0.0794,0.17639 -0.17639,0.17639 -0.097,0 -0.17639,-0.0794 -0.17639,-0.17639 z m -16.77776,-0.82907 c -0.0597,-0.0679 -0.27101,-0.0232 -0.46947,0.0995 l -0.36085,0.22301 0.22268,0.58027 0.22267,0.58027 0.2468,-0.67976 c 0.13574,-0.37387 0.19792,-0.73535 0.13817,-0.80328 z m 10.07498,1.18185 c 0,-0.097 -0.0794,-0.17639 -0.17639,-0.17639 -0.097,0 -0.17639,0.0794 -0.17639,0.17639 0,0.097 0.0794,0.17639 0.17639,0.17639 0.097,0 0.17639,-0.0794 0.17639,-0.17639 z m 10.58333,0 c 0,-0.097 -0.0794,-0.17639 -0.17638,-0.17639 -0.097,0 -0.17639,0.0794 -0.17639,0.17639 0,0.097 0.0794,0.17639 0.17639,0.17639 0.097,0 0.17638,-0.0794 0.17638,-0.17639 z m -5.99722,-1.76389 c 0,-0.097 -0.0794,-0.17639 -0.17639,-0.17639 -0.097,0 -0.17639,0.0794 -0.17639,0.17639 0,0.097 0.0794,0.17639 0.17639,0.17639 0.097,0 0.17639,-0.0794 0.17639,-0.17639 z m 2.70463,-0.41157 c -0.12935,-0.12935 -0.34102,-0.12935 -0.47037,0 -0.12935,0.12935 -0.0235,0.23518 0.23519,0.23518 0.2587,0 0.36453,-0.10583 0.23518,-0.23518 z m 1.76389,-1.41111 c -0.12935,-0.12935 -0.23518,-0.0235 -0.23518,0.23518 0,0.25871 0.10583,0.36454 0.23518,0.23519 0.12935,-0.12935 0.12935,-0.34102 0,-0.47037 z m -19.63796,-0.29398 c 0,-0.097 -0.0794,-0.17639 -0.17639,-0.17639 -0.097,0 -0.17639,0.0794 -0.17639,0.17639 0,0.097 0.0794,0.17639 0.17639,0.17639 0.097,0 0.17639,-0.0794 0.17639,-0.17639 z m 21.16666,0 c 0,-0.097 -0.0794,-0.17639 -0.17638,-0.17639 -0.097,0 -0.17639,0.0794 -0.17639,0.17639 0,0.097 0.0794,0.17639 0.17639,0.17639 0.097,0 0.17638,-0.0794 0.17638,-0.17639 z M 197.24236,192 c 0,-0.097 -0.0794,-0.17639 -0.17639,-0.17639 -0.097,0 -0.17639,0.0794 -0.17639,0.17639 0,0.097 0.0794,0.17639 0.17639,0.17639 0.097,0 0.17639,-0.0794 0.17639,-0.17639 z m 18.57963,-0.76435 c -0.12935,-0.12936 -0.23519,-0.0235 -0.23519,0.23518 0,0.25871 0.10584,0.36454 0.23519,0.23519 0.12935,-0.12935 0.12935,-0.34102 0,-0.47037 z m -18.93241,-0.47037 c 0,-0.19403 -0.16812,-0.35278 -0.3736,-0.35278 -0.20548,0 -0.27548,0.15875 -0.15557,0.35278 0.11992,0.19402 0.28804,0.35277 0.3736,0.35277 0.0856,0 0.15557,-0.15875 0.15557,-0.35277 z m -1.05833,-0.17639 c 0,-0.097 -0.0794,-0.17639 -0.17639,-0.17639 -0.097,0 -0.17639,0.0794 -0.17639,0.17639 0,0.097 0.0794,0.17639 0.17639,0.17639 0.097,0 0.17639,-0.0794 0.17639,-0.17639 z m 7.64352,-0.41158 c -0.12936,-0.12935 -0.34102,-0.12935 -0.47037,0 -0.12936,0.12936 -0.0235,0.23519 0.23518,0.23519 0.25871,0 0.36454,-0.10583 0.23519,-0.23519 z m 13.4549,-0.0679 0.46092,-0.29233 -0.0826,-1.81014 -0.0826,-1.81014 -0.46652,0.38718 c -0.54356,0.45112 -0.63245,2.06468 -0.11374,2.06468 0.19402,0 0.35277,0.22114 0.35277,0.49142 0,0.53824 -0.94592,1.03081 -1.41857,0.73869 -0.16311,-0.10081 -0.39627,-0.0219 -0.51815,0.17525 l -0.22158,0.35853 0.81457,-0.005 c 0.44801,-0.003 1.02198,-0.13695 1.27549,-0.29774 z m -0.28453,-2.34269 c 0,-0.097 0.0794,-0.17639 0.17639,-0.17639 0.097,0 0.17638,0.0794 0.17638,0.17639 0,0.097 -0.0794,0.17638 -0.17638,0.17638 -0.097,0 -0.17639,-0.0794 -0.17639,-0.17638 z m -8.11389,1.76388 c 0,-0.097 -0.0794,-0.17638 -0.17639,-0.17638 -0.097,0 -0.17639,0.0794 -0.17639,0.17638 0,0.097 0.0794,0.17639 0.17639,0.17639 0.097,0 0.17639,-0.0794 0.17639,-0.17639 z m 0.70555,-1.05833 c 0,-0.097 -0.0794,-0.17639 -0.17639,-0.17639 -0.097,0 -0.17638,0.0794 -0.17638,0.17639 0,0.097 0.0794,0.17639 0.17638,0.17639 0.097,0 0.17639,-0.0794 0.17639,-0.17639 z m 6.70278,0 c 0,-0.097 -0.0794,-0.17639 -0.17639,-0.17639 -0.097,0 -0.17639,0.0794 -0.17639,0.17639 0,0.097 0.0794,0.17639 0.17639,0.17639 0.097,0 0.17639,-0.0794 0.17639,-0.17639 z m 0,-1.05833 c 0,-0.097 -0.0794,-0.17639 -0.17639,-0.17639 -0.097,0 -0.17639,0.0794 -0.17639,0.17639 0,0.097 0.0794,0.17639 0.17639,0.17639 0.097,0 0.17639,-0.0794 0.17639,-0.17639 z m 0.29416,-1.19103 0.47055,-0.29829 -0.52425,-0.20117 c -0.54526,-0.20923 -0.94601,0.009 -0.94601,0.51456 0,0.37327 0.39648,0.36728 0.99971,-0.0151 z m 1.11695,-0.57286 c 0,-0.097 -0.0794,-0.17639 -0.17639,-0.17639 -0.097,0 -0.17639,0.0794 -0.17639,0.17639 0,0.097 0.0794,0.17639 0.17639,0.17639 0.097,0 0.17639,-0.0794 0.17639,-0.17639 z m -20.93148,-1.11713 c -0.12935,-0.12935 -0.23518,-0.0235 -0.23518,0.23518 0,0.25871 0.10583,0.36454 0.23518,0.23519 0.12935,-0.12935 0.12935,-0.34102 0,-0.47037 z m 20.45288,0.14699 c 0.40656,-0.57214 0.37022,-1.3348 -0.10299,-2.16197 l -0.3791,-0.66266 -0.24603,0.39808 -0.24603,0.39808 0.46179,0.0112 0.4618,0.0112 -0.66934,0.50664 c -0.36813,0.27866 -0.80469,0.42299 -0.97014,0.32074 -0.16544,-0.10225 -0.30585,0.0219 -0.31202,0.27589 l -0.0112,0.46179 -0.46864,-0.61736 c -0.25776,-0.33955 -0.58965,-0.61736 -0.73754,-0.61736 -0.14789,0 -0.0713,0.23812 0.17028,0.52916 0.24155,0.29104 0.30067,0.5316 0.13139,0.53457 -0.16927,0.003 -0.0738,0.15334 0.21208,0.33416 l 0.51986,0.32875 0.25491,-0.41246 0.25492,-0.41247 0.23311,0.60748 c 0.27303,0.71149 0.99634,0.79496 1.44291,0.1665 z m -1.16769,-0.85255 c 0.12935,-0.12935 0.34101,-0.12935 0.47037,0 0.12935,0.12936 0.0235,0.23519 -0.23519,0.23519 -0.2587,0 -0.36454,-0.10583 -0.23518,-0.23519 z m 0.94074,-0.64676 c 0,-0.097 0.0794,-0.17638 0.17639,-0.17638 0.097,0 0.17638,0.0794 0.17638,0.17638 0,0.097 -0.0794,0.17639 -0.17638,0.17639 -0.097,0 -0.17639,-0.0794 -0.17639,-0.17639 z m -9.525,1.05834 c 0,-0.097 -0.0794,-0.17639 -0.17639,-0.17639 -0.097,0 -0.17639,0.0794 -0.17639,0.17639 0,0.097 0.0794,0.17639 0.17639,0.17639 0.097,0 0.17639,-0.0794 0.17639,-0.17639 z m -5.76204,-0.76435 c -0.12935,-0.12936 -0.23519,-0.0235 -0.23519,0.23518 0,0.2587 0.10584,0.36454 0.23519,0.23519 0.12935,-0.12936 0.12935,-0.34102 0,-0.47037 z m 6.70278,0 c -0.12935,-0.12936 -0.23519,-0.0235 -0.23519,0.23518 0,0.2587 0.10584,0.36454 0.23519,0.23519 0.12935,-0.12936 0.12935,-0.34102 0,-0.47037 z m 5.05648,-0.29399 c 0,-0.097 -0.0794,-0.17638 -0.17639,-0.17638 -0.097,0 -0.17639,0.0794 -0.17639,0.17638 0,0.097 0.0794,0.17639 0.17639,0.17639 0.097,0 0.17639,-0.0794 0.17639,-0.17639 z m 0.58796,-0.76435 c -0.12935,-0.12935 -0.34102,-0.12935 -0.47037,0 -0.12935,0.12935 -0.0235,0.23519 0.23519,0.23519 0.2587,0 0.36453,-0.10584 0.23518,-0.23519 z m 1.88148,0.0746 c 0,-0.27221 -1.04996,-0.49116 -1.19898,-0.25003 -0.0898,0.14527 0.14325,0.28722 0.51787,0.31544 0.37461,0.0282 0.68111,-0.001 0.68111,-0.0654 z m -15.16944,-0.3686 c 0,-0.097 -0.0794,-0.17639 -0.17639,-0.17639 -0.097,0 -0.17639,0.0794 -0.17639,0.17639 0,0.097 0.0794,0.17639 0.17639,0.17639 0.097,0 0.17639,-0.0794 0.17639,-0.17639 z m 9.87778,0.0208 c 0,-0.0856 -0.18328,-0.26884 -0.40729,-0.40728 l -0.40728,-0.25172 0.25171,0.40728 c 0.25134,0.40667 0.56286,0.54599 0.56286,0.25172 z m 1.41111,-0.3736 0.43917,-0.52916 h -0.51357 -0.51356 v 0.52916 c 0,0.29104 0.0335,0.52917 0.0744,0.52917 0.0409,0 0.27202,-0.23813 0.51357,-0.52917 z m -5.99722,0 c 0,-0.097 -0.0794,-0.17639 -0.17639,-0.17639 -0.097,0 -0.17639,0.0794 -0.17639,0.17639 0,0.097 0.0794,0.17639 0.17639,0.17639 0.097,0 0.17639,-0.0794 0.17639,-0.17639 z m 8.46666,0 c 0,-0.097 -0.0794,-0.17639 -0.17639,-0.17639 -0.097,0 -0.17639,0.0794 -0.17639,0.17639 0,0.097 0.0794,0.17639 0.17639,0.17639 0.097,0 0.17639,-0.0794 0.17639,-0.17639 z m -9.64259,-0.41157 c -0.12935,-0.12935 -0.34102,-0.12935 -0.47037,0 -0.12935,0.12935 -0.0235,0.23518 0.23518,0.23518 0.25871,0 0.36454,-0.10583 0.23519,-0.23518 z m 2.58704,0.0588 c 0,-0.097 -0.0794,-0.17639 -0.17639,-0.17639 -0.097,0 -0.17639,0.0794 -0.17639,0.17639 0,0.097 0.0794,0.17638 0.17639,0.17638 0.097,0 0.17639,-0.0794 0.17639,-0.17638 z m 6.35,0 c 0,-0.097 -0.0794,-0.17639 -0.17639,-0.17639 -0.097,0 -0.17639,0.0794 -0.17639,0.17639 0,0.097 0.0794,0.17638 0.17639,0.17638 0.097,0 0.17639,-0.0794 0.17639,-0.17638 z m 2.46944,0 c 0,-0.097 -0.0794,-0.17639 -0.17639,-0.17639 -0.097,0 -0.17639,0.0794 -0.17639,0.17639 0,0.097 0.0794,0.17638 0.17639,0.17638 0.097,0 0.17639,-0.0794 0.17639,-0.17638 z m 1.41111,-0.35278 c 0,-0.097 -0.0794,-0.17639 -0.17639,-0.17639 -0.097,0 -0.17639,0.0794 -0.17639,0.17639 0,0.097 0.0794,0.17639 0.17639,0.17639 0.097,0 0.17639,-0.0794 0.17639,-0.17639 z m -3.70416,-0.52917 c 0.11991,-0.19403 0.0593,-0.35278 -0.13475,-0.35278 -0.19403,0 -0.45089,0.15875 -0.57081,0.35278 -0.11992,0.19403 -0.0593,0.35278 0.13475,0.35278 0.19403,0 0.45089,-0.15875 0.57081,-0.35278 z m -9.70139,-0.17639 c 0,-0.097 -0.0794,-0.17639 -0.17639,-0.17639 -0.097,0 -0.17639,0.0794 -0.17639,0.17639 0,0.097 0.0794,0.17639 0.17639,0.17639 0.097,0 0.17639,-0.0794 0.17639,-0.17639 z m 7.05555,0 c 0,-0.097 -0.0794,-0.17639 -0.17639,-0.17639 -0.097,0 -0.17639,0.0794 -0.17639,0.17639 0,0.097 0.0794,0.17639 0.17639,0.17639 0.097,0 0.17639,-0.0794 0.17639,-0.17639 z m -1.82863,-1.2073 c -0.21137,-0.33846 -0.62178,-0.61538 -0.91202,-0.61538 h -0.5277 l 0.61117,0.44689 0.61117,0.4469 -0.23004,0.37221 -0.23004,0.37221 0.53089,-0.20372 0.53089,-0.20372 z m 4.62379,0.11761 c 0.59697,-0.50232 1.07904,-1.17701 1.07127,-1.49931 l -0.0141,-0.586 -0.52244,0.96275 c -0.28734,0.52951 -0.95567,1.19784 -1.48518,1.48518 -0.52951,0.28734 -0.77649,0.52879 -0.54884,0.53656 0.22765,0.008 0.90234,-0.39686 1.49931,-0.89918 z m -13.02571,0.38414 c 0,-0.097 -0.0794,-0.17639 -0.17639,-0.17639 -0.097,0 -0.17639,0.0794 -0.17639,0.17639 0,0.097 0.0794,0.17639 0.17639,0.17639 0.097,0 0.17639,-0.0794 0.17639,-0.17639 z m 1.76389,0 c 0,-0.097 -0.0794,-0.17639 -0.17639,-0.17639 -0.097,0 -0.17639,0.0794 -0.17639,0.17639 0,0.097 0.0794,0.17639 0.17639,0.17639 0.097,0 0.17639,-0.0794 0.17639,-0.17639 z m 0.94074,-0.0588 c -0.12936,-0.12935 -0.34102,-0.12935 -0.47037,0 -0.12936,0.12935 -0.0235,0.23519 0.23518,0.23519 0.25871,0 0.36454,-0.10584 0.23519,-0.23519 z m 7.8787,0.0588 c 0,-0.097 -0.0794,-0.17639 -0.17639,-0.17639 -0.097,0 -0.17639,0.0794 -0.17639,0.17639 0,0.097 0.0794,0.17639 0.17639,0.17639 0.097,0 0.17639,-0.0794 0.17639,-0.17639 z m 3.88056,0 c 0,-0.097 -0.0794,-0.17639 -0.17639,-0.17639 -0.097,0 -0.17639,0.0794 -0.17639,0.17639 0,0.097 0.0794,0.17639 0.17639,0.17639 0.097,0 0.17639,-0.0794 0.17639,-0.17639 z m -10.41614,-1.18699 c 0.0798,-0.41431 0.022,-0.75329 -0.1285,-0.75329 -0.31563,0 -0.27778,-1.28962 0.0474,-1.6148 0.11994,-0.11994 0.13265,-0.44067 0.0282,-0.71275 l -0.18982,-0.49467 h 0.63746 0.63747 l -0.42334,-0.42334 c -0.23283,-0.23283 -0.42333,-0.57679 -0.42333,-0.76435 0,-0.18756 0.10025,-0.24077 0.22277,-0.11824 0.12253,0.12252 0.53959,0.0532 0.92681,-0.15402 l 0.70404,-0.37679 0.23624,0.38226 0.23625,0.38225 1.33382,-0.90636 c 0.73361,-0.4985 1.43922,-0.80096 1.56804,-0.67215 0.12881,0.12882 -0.0282,0.38108 -0.34899,0.56059 l -0.5832,0.32637 0.0992,0.6173 0.0992,0.61731 0.81214,-0.0948 0.81213,-0.0948 -0.67799,0.80034 -0.678,0.80033 0.70556,-0.57439 c 0.38805,-0.31592 1.26118,-0.65314 1.94027,-0.74938 l 1.23473,-0.175 0.94537,0.66758 0.94537,0.66757 0.22198,-0.35916 0.22197,-0.35916 -0.46179,-0.0279 -0.46179,-0.0279 0.42115,-0.17133 0.42116,-0.17133 -0.21653,-0.56424 -0.21652,-0.56425 0.37276,0.23038 0.37275,0.23037 0.43754,-0.52719 0.43753,-0.52719 -0.23165,-1.44863 -0.23164,-1.44863 0.40645,-0.48974 0.40644,-0.48974 -0.48416,-0.005 -0.48417,-0.005 0.52916,-0.34197 0.52917,-0.34198 -0.52917,-0.0472 c -0.29104,-0.0259 -0.66493,-0.0228 -0.83088,0.007 -0.41331,0.0742 -1.28578,-0.68262 -1.28578,-1.11533 V 166.69 l 0.52916,0.43917 c 0.29105,0.24154 0.52917,0.33477 0.52917,0.20717 0,-0.1276 0.2839,-0.0801 0.63089,0.10564 l 0.63089,0.33765 0.0696,-0.8414 0.0696,-0.8414 -0.58201,0.22334 -0.58201,0.22334 0.25258,-0.40869 0.25258,-0.40868 -0.54749,0.21009 -0.54749,0.21009 v -0.36112 c 0,-0.19862 0.17093,-0.4181 0.37985,-0.48774 l 0.37984,-0.12662 -0.81473,-0.69653 -0.81474,-0.69653 0.52309,0.67473 0.52308,0.67473 -0.42115,0.14181 -0.42116,0.14181 0.21782,0.56762 0.21782,0.56762 -0.59042,-0.23763 c -0.32472,-0.1307 -0.86822,-0.33837 -1.20777,-0.46149 l -0.61736,-0.22385 0.66686,0.51989 0.66685,0.5199 -0.59698,0.22908 -0.59699,0.22908 0.19075,-0.30863 c 0.10491,-0.16974 -0.11472,-0.38851 -0.48806,-0.48614 l -0.67881,-0.17751 -0.19329,0.50372 -0.1933,0.50373 0.76186,0.28183 0.76186,0.28183 -0.76774,0.20077 -0.76773,0.20076 v -0.49614 c 0,-0.6142 -0.41983,-0.63697 -1.01726,-0.0552 l -0.45282,0.44097 0.0713,-0.52917 c 0.0392,-0.29104 0.0525,-0.77152 0.0295,-1.06774 l -0.0418,-0.53857 -1.38407,0.0185 -1.38407,0.0185 -0.70586,0.63879 -0.70585,0.63879 0.0893,-0.60844 c 0.0491,-0.33464 0.38492,-0.8246 0.74624,-1.08881 0.36131,-0.2642 0.50753,-0.48279 0.32493,-0.48576 -0.18261,-0.003 -0.12015,-0.1397 0.13878,-0.30384 l 0.4708,-0.29843 -0.73587,-0.19243 -0.73586,-0.19244 0.23077,0.3734 0.23077,0.3734 -0.65049,0.47565 c -0.35777,0.2616 -0.52251,0.47564 -0.3661,0.47564 0.15641,0 0.0343,0.38169 -0.27137,0.8482 l -0.55576,0.8482 0.75624,0.50213 0.75625,0.50212 -0.50564,0.29374 -0.50564,0.29373 0.2591,-0.28626 0.2591,-0.28626 -0.61088,-0.44668 -0.61088,-0.44669 -0.41422,0.34377 -0.41421,0.34377 0.18978,-0.72572 c 0.10437,-0.39914 0.33001,-0.72571 0.50141,-0.72571 0.1714,0 0.31163,-0.23813 0.31163,-0.52917 0,-0.61955 -0.58522,-0.71379 -0.78121,-0.1258 l -0.13446,0.40337 -0.77689,-0.41578 c -0.42728,-0.22868 -0.77688,-0.65769 -0.77688,-0.95335 0,-0.29567 0.12579,-0.45983 0.27954,-0.36481 0.15375,0.095 0.30242,-0.13086 0.33037,-0.50197 l 0.0508,-0.67474 -0.83352,0.96376 -0.83352,0.96377 0.32896,0.11832 c 0.18092,0.0651 0.23679,0.26745 0.12415,0.44971 -0.11265,0.18227 -0.0739,0.28777 0.086,0.23446 0.15994,-0.0533 0.29081,0.0534 0.29081,0.23721 0,0.18378 -0.39688,0.34253 -0.88195,0.35278 l -0.88194,0.0186 0.084,0.42827 0.084,0.42828 -0.47941,-0.18397 -0.47941,-0.18397 -0.21084,0.54945 -0.21084,0.54944 0.60629,0.0279 0.60629,0.0279 -0.48089,0.19124 -0.48089,0.19124 0.46058,0.28466 0.46059,0.28466 0.45457,-0.59195 0.45457,-0.59194 0.30303,0.45864 c 0.16667,0.25226 0.63494,0.48365 1.0406,0.51421 0.40566,0.0306 0.65982,0.18135 0.5648,0.3351 -0.095,0.15375 0.0257,0.27955 0.26826,0.27955 h 0.44102 l -0.68479,0.51794 -0.68479,0.51795 0.61737,0.0112 c 0.33954,0.006 0.61736,0.1606 0.61736,0.34318 0,0.58846 -0.72165,0.79941 -1.246,0.36424 l -0.50954,-0.42288 -0.22609,0.58917 -0.22609,0.58917 -0.48364,-0.18559 -0.48364,-0.18559 v 0.73768 0.73768 l 0.53724,-0.44587 0.53724,-0.44588 -0.22774,0.59349 -0.22775,0.5935 0.30787,-0.0562 c 0.16932,-0.0309 0.54598,-0.0273 0.83703,0.008 l 0.52916,0.0641 -0.79329,0.31888 -0.7933,0.31888 0.10805,0.708 c 0.0594,0.3894 0.21797,0.81792 0.35232,0.95227 0.36351,0.36352 0.29555,0.90557 -0.0841,0.67092 -0.18062,-0.11163 -0.44328,-0.0171 -0.58368,0.21008 l -0.25527,0.41304 0.38614,-0.23865 0.38613,-0.23865 0.45171,0.48355 0.4517,0.48355 0.6016,-0.15732 0.60159,-0.15732 -0.10024,0.65166 c -0.19259,1.25208 0.78573,1.4145 1.02536,0.17023 z m -1.71836,-1.51764 c 0.0999,-0.16169 0.33107,-0.29398 0.51365,-0.29398 0.18258,0 0.33196,0.13229 0.33196,0.29398 0,0.16169 -0.23114,0.29398 -0.51365,0.29398 -0.28251,0 -0.43189,-0.13229 -0.33196,-0.29398 z m -0.21273,-1.35232 c 0,-0.19403 0.16812,-0.35278 0.3736,-0.35278 0.20548,0 0.27549,0.15875 0.15557,0.35278 -0.11992,0.19403 -0.28803,0.35278 -0.3736,0.35278 -0.0856,0 -0.15557,-0.15875 -0.15557,-0.35278 z m -0.70555,-0.17639 c 0,-0.097 0.0794,-0.17639 0.17639,-0.17639 0.097,0 0.17639,0.0794 0.17639,0.17639 0,0.097 -0.0794,0.17639 -0.17639,0.17639 -0.097,0 -0.17639,-0.0794 -0.17639,-0.17639 z m 0.9842,-0.94893 c 0.50027,-0.50026 1.48524,-0.69412 1.48524,-0.29232 0,0.30458 -0.86443,0.71209 -1.51052,0.71209 h -0.39448 z m 7.27239,-1.04585 -0.25172,-0.40729 0.40729,0.25172 c 0.40666,0.25133 0.54598,0.56285 0.25171,0.56285 -0.0856,0 -0.26884,-0.18328 -0.40728,-0.40728 z m -7.05556,-0.35278 -0.25171,-0.40728 0.40728,0.25171 c 0.22401,0.13844 0.40729,0.32172 0.40729,0.40729 0,0.29426 -0.31152,0.15495 -0.56286,-0.25172 z m 2.82239,-0.56893 c 0.67629,-0.79266 1.13153,-1.06989 0.75414,-0.45927 -0.11163,0.18062 -0.0416,0.42811 0.15557,0.54998 l 0.35853,0.22159 v -0.3736 c 0,-0.20548 0.1323,-0.3736 0.29399,-0.3736 0.16169,0 0.29398,0.2202 0.29398,0.48933 0,0.49292 -0.71301,0.56155 -1.16266,0.11191 -0.13328,-0.13329 -0.49506,-0.048 -0.80396,0.1895 l -0.56162,0.43183 z m 8.3238,0.44705 c 0,-0.097 0.0794,-0.17639 0.17639,-0.17639 0.097,0 0.17639,0.0794 0.17639,0.17639 0,0.097 -0.0794,0.17639 -0.17639,0.17639 -0.097,0 -0.17639,-0.0794 -0.17639,-0.17639 z m 1.76389,0 c 0,-0.097 0.0794,-0.17639 0.17639,-0.17639 0.097,0 0.17639,0.0794 0.17639,0.17639 0,0.097 -0.0794,0.17639 -0.17639,0.17639 -0.097,0 -0.17639,-0.0794 -0.17639,-0.17639 z m -2.46945,-0.35278 c 0,-0.097 0.0794,-0.17639 0.17639,-0.17639 0.097,0 0.17639,0.0794 0.17639,0.17639 0,0.097 -0.0794,0.17639 -0.17639,0.17639 -0.097,0 -0.17639,-0.0794 -0.17639,-0.17639 z m -11.64166,-0.35278 c 0,-0.097 0.0794,-0.17639 0.17639,-0.17639 0.097,0 0.17639,0.0794 0.17639,0.17639 0,0.097 -0.0794,0.17639 -0.17639,0.17639 -0.097,0 -0.17639,-0.0794 -0.17639,-0.17639 z m 3.175,0 c 0,-0.097 0.0794,-0.17639 0.17639,-0.17639 0.097,0 0.17639,0.0794 0.17639,0.17639 0,0.097 -0.0794,0.17639 -0.17639,0.17639 -0.097,0 -0.17639,-0.0794 -0.17639,-0.17639 z m 6.35,0 c 0,-0.097 0.0794,-0.17639 0.17639,-0.17639 0.097,0 0.17639,0.0794 0.17639,0.17639 0,0.097 -0.0794,0.17639 -0.17639,0.17639 -0.097,0 -0.17639,-0.0794 -0.17639,-0.17639 z m -7.19561,-0.47037 c -0.0999,-0.16169 0.0425,-0.29398 0.31644,-0.29398 0.27397,0 0.41637,0.13229 0.31644,0.29398 -0.0999,0.16169 -0.24233,0.29398 -0.31644,0.29398 -0.0741,0 -0.21651,-0.13229 -0.31644,-0.29398 z m 8.25394,0.1176 c 0,-0.097 0.0794,-0.17639 0.17639,-0.17639 0.097,0 0.17639,0.0794 0.17639,0.17639 0,0.097 -0.0794,0.17638 -0.17639,0.17638 -0.097,0 -0.17639,-0.0794 -0.17639,-0.17638 z m -4.46852,-0.41158 c 0.12935,-0.12935 0.34102,-0.12935 0.47037,0 0.12936,0.12935 0.0235,0.23519 -0.23518,0.23519 -0.25871,0 -0.36454,-0.10584 -0.23519,-0.23519 z m 0.94074,0.0588 c 0,-0.097 0.0794,-0.17639 0.17639,-0.17639 0.097,0 0.17639,0.0794 0.17639,0.17639 0,0.097 -0.0794,0.17639 -0.17639,0.17639 -0.097,0 -0.17639,-0.0794 -0.17639,-0.17639 z m 0.70556,-0.52917 c 0,-0.2587 0.10583,-0.36454 0.23518,-0.23518 0.12936,0.12935 0.12936,0.34101 0,0.47037 -0.12935,0.12935 -0.23518,0.0235 -0.23518,-0.23519 z m 0.70555,0.17639 c 0,-0.097 0.0794,-0.17639 0.17639,-0.17639 0.097,0 0.17639,0.0794 0.17639,0.17639 0,0.097 -0.0794,0.17639 -0.17639,0.17639 -0.097,0 -0.17639,-0.0794 -0.17639,-0.17639 z m 2.82223,-0.17639 c 0,-0.19403 0.16812,-0.35278 0.37359,-0.35278 0.20548,0 0.27549,0.15875 0.15557,0.35278 -0.11991,0.19403 -0.28803,0.35278 -0.37359,0.35278 -0.0856,0 -0.15557,-0.15875 -0.15557,-0.35278 z m -7.40834,-0.17639 c 0,-0.097 0.0794,-0.17639 0.17639,-0.17639 0.097,0 0.17639,0.0794 0.17639,0.17639 0,0.097 -0.0794,0.17639 -0.17639,0.17639 -0.097,0 -0.17639,-0.0794 -0.17639,-0.17639 z m -0.88194,-0.52916 c 0.11991,-0.19403 0.28803,-0.35278 0.3736,-0.35278 0.0856,0 0.15557,0.15875 0.15557,0.35278 0,0.19402 -0.16812,0.35277 -0.3736,0.35277 -0.20548,0 -0.27549,-0.15875 -0.15557,-0.35277 z m 1.11383,-0.44098 c 0.22228,-0.36185 1.44696,-0.33481 1.67676,0.037 l 0.1864,0.3016 -1.01284,-0.037 c -0.55707,-0.0204 -0.93971,-0.15608 -0.85032,-0.3016 z m 3.1783,0.20579 c -0.12935,-0.12935 -0.23276,-0.40716 -0.22978,-0.61736 l 0.005,-0.38218 0.30328,0.47864 0.30327,0.47863 0.24131,-0.39044 c 0.13272,-0.21474 0.40203,-0.39044 0.59846,-0.39044 h 0.35716 l -0.52917,0.52917 c -0.59482,0.59482 -0.71534,0.62857 -1.04993,0.29398 z m -4.8213,-0.64676 c 0,-0.097 0.0794,-0.17639 0.17639,-0.17639 0.097,0 0.17639,0.0794 0.17639,0.17639 0,0.097 -0.0794,0.17639 -0.17639,0.17639 -0.097,0 -0.17639,-0.0794 -0.17639,-0.17639 z m 1.05834,0 c 0,-0.097 0.0794,-0.17639 0.17638,-0.17639 0.097,0 0.17639,0.0794 0.17639,0.17639 0,0.097 -0.0794,0.17639 -0.17639,0.17639 -0.097,0 -0.17638,-0.0794 -0.17638,-0.17639 z m 2.46944,-0.17639 c 0,-0.19403 0.15875,-0.35278 0.35278,-0.35278 0.19403,0 0.35278,0.15875 0.35278,0.35278 0,0.19403 -0.15875,0.35278 -0.35278,0.35278 -0.19403,0 -0.35278,-0.15875 -0.35278,-0.35278 z m 3.43958,0.11914 c 0.24254,-0.0979 0.63941,-0.0979 0.88195,0 0.24253,0.0979 0.0441,0.17794 -0.44097,0.17794 -0.48507,0 -0.68351,-0.0801 -0.44098,-0.17794 z m 2.20486,0.0573 c 0,-0.097 0.0794,-0.17639 0.17639,-0.17639 0.097,0 0.17639,0.0794 0.17639,0.17639 0,0.097 -0.0794,0.17639 -0.17639,0.17639 -0.097,0 -0.17639,-0.0794 -0.17639,-0.17639 z m 0.70556,0 c 0,-0.097 0.0794,-0.17639 0.17639,-0.17639 0.097,0 0.17639,0.0794 0.17639,0.17639 0,0.097 -0.0794,0.17639 -0.17639,0.17639 -0.097,0 -0.17639,-0.0794 -0.17639,-0.17639 z m -8.11389,-0.35278 c 0,-0.097 0.0794,-0.17639 0.17639,-0.17639 0.097,0 0.17639,0.0794 0.17639,0.17639 0,0.097 -0.0794,0.17639 -0.17639,0.17639 -0.097,0 -0.17639,-0.0794 -0.17639,-0.17639 z m 7.78896,-0.42015 c -0.0402,-0.60709 0.58406,-0.89871 0.88423,-0.41304 l 0.25527,0.41304 -0.37715,-0.23309 -0.37716,-0.2331 -0.17867,0.44317 -0.17867,0.44317 z m -12.02229,-0.2854 c 0,-0.097 0.0794,-0.17639 0.17639,-0.17639 0.097,0 0.17639,0.0794 0.17639,0.17639 0,0.097 -0.0794,0.17639 -0.17639,0.17639 -0.097,0 -0.17639,-0.0794 -0.17639,-0.17639 z m 4.89479,-0.15557 c -0.0242,-0.20548 -0.0639,-0.64924 -0.0882,-0.98613 l -0.0441,-0.61253 0.65914,-0.12694 0.65914,-0.12694 -0.23649,0.38265 -0.23649,0.38265 0.54749,-0.21009 0.54749,-0.21009 v 0.57363 0.57363 l -0.97014,-0.21164 -0.97014,-0.21164 0.47863,0.33721 0.47864,0.33721 -0.39044,0.24131 -0.39044,0.24131 z m 1.45521,0.15557 c 0,-0.097 0.0794,-0.17639 0.17639,-0.17639 0.097,0 0.17639,0.0794 0.17639,0.17639 0,0.097 -0.0794,0.17639 -0.17639,0.17639 -0.097,0 -0.17639,-0.0794 -0.17639,-0.17639 z m -7.40834,-0.50835 c 0,-0.18258 0.15875,-0.43007 0.35278,-0.54999 l 0.35278,-0.21802 v 0.54998 c 0,0.30249 -0.15875,0.54999 -0.35278,0.54999 -0.19403,0 -0.35278,-0.14938 -0.35278,-0.33196 z m 2.11667,0.15557 c 0,-0.097 0.0794,-0.17639 0.17639,-0.17639 0.097,0 0.17639,0.0794 0.17639,0.17639 0,0.097 -0.0794,0.17639 -0.17639,0.17639 -0.097,0 -0.17639,-0.0794 -0.17639,-0.17639 z m -0.35278,-0.70556 c 0,-0.097 0.0794,-0.17638 0.17639,-0.17638 0.097,0 0.17639,0.0794 0.17639,0.17638 0,0.097 -0.0794,0.17639 -0.17639,0.17639 -0.097,0 -0.17639,-0.0794 -0.17639,-0.17639 z m 6.35,0 c 0,-0.097 0.0794,-0.17638 0.17639,-0.17638 0.097,0 0.17639,0.0794 0.17639,0.17638 0,0.097 -0.0794,0.17639 -0.17639,0.17639 -0.097,0 -0.17639,-0.0794 -0.17639,-0.17639 z m -5.64444,-0.35277 c 0,-0.097 0.0794,-0.17639 0.17639,-0.17639 0.097,0 0.17639,0.0794 0.17639,0.17639 0,0.097 -0.0794,0.17639 -0.17639,0.17639 -0.097,0 -0.17639,-0.0794 -0.17639,-0.17639 z m 3.76296,12.28842 c -0.12935,-0.12935 -0.34102,-0.12935 -0.47037,0 -0.12935,0.12935 -0.0235,0.23519 0.23519,0.23519 0.2587,0 0.36453,-0.10584 0.23518,-0.23519 z m 3.29259,0.10199 c 0,-0.0733 -0.27781,-0.35106 -0.61736,-0.61736 l -0.61736,-0.48416 0.48417,0.61736 c 0.46086,0.58764 0.75055,0.77451 0.75055,0.48416 z m 6.70278,-0.0432 c 0,-0.097 -0.0794,-0.17639 -0.17639,-0.17639 -0.097,0 -0.17639,0.0794 -0.17639,0.17639 0,0.097 0.0794,0.17639 0.17639,0.17639 0.097,0 0.17639,-0.0794 0.17639,-0.17639 z m -15.875,-0.52917 c 0,-0.19403 -0.15875,-0.35278 -0.35278,-0.35278 -0.19402,0 -0.35277,0.15875 -0.35277,0.35278 0,0.19403 0.15875,0.35278 0.35277,0.35278 0.19403,0 0.35278,-0.15875 0.35278,-0.35278 z m 1.76389,0 c 0,-0.19403 -0.14938,-0.35278 -0.33196,-0.35278 -0.18257,0 -0.43007,0.15875 -0.54998,0.35278 l -0.21803,0.35278 h 0.54998 c 0.3025,0 0.54999,-0.15875 0.54999,-0.35278 z m 3.175,0.17639 c 0,-0.097 -0.0794,-0.17639 -0.17639,-0.17639 -0.097,0 -0.17639,0.0794 -0.17639,0.17639 0,0.097 0.0794,0.17639 0.17639,0.17639 0.097,0 0.17639,-0.0794 0.17639,-0.17639 z m 8.81945,0 c 0,-0.097 -0.0794,-0.17639 -0.17639,-0.17639 -0.097,0 -0.17639,0.0794 -0.17639,0.17639 0,0.097 0.0794,0.17639 0.17639,0.17639 0.097,0 0.17639,-0.0794 0.17639,-0.17639 z m -14.81667,-0.35278 c 0,-0.097 -0.0794,-0.17639 -0.17639,-0.17639 -0.097,0 -0.17639,0.0794 -0.17639,0.17639 0,0.097 0.0794,0.17639 0.17639,0.17639 0.097,0 0.17639,-0.0794 0.17639,-0.17639 z m -0.70556,-0.35277 c 0,-0.097 -0.0794,-0.17639 -0.17639,-0.17639 -0.097,0 -0.17638,0.0794 -0.17638,0.17639 0,0.097 0.0794,0.17638 0.17638,0.17638 0.097,0 0.17639,-0.0794 0.17639,-0.17638 z m 17.63889,-1.43631 v -1.6127 l -0.52916,0.52916 c -0.62077,0.62077 -0.70425,1.08219 -0.13178,0.72839 l 0.39739,-0.2456 -0.35622,0.63652 -0.35622,0.63652 0.3998,0.45678 c 0.57235,0.65393 0.57619,0.6464 0.57619,-1.12907 z m -10.23055,1.08353 c 0,-0.097 -0.0794,-0.17639 -0.17639,-0.17639 -0.097,0 -0.17639,0.0794 -0.17639,0.17639 0,0.097 0.0794,0.17639 0.17639,0.17639 0.097,0 0.17639,-0.0794 0.17639,-0.17639 z m 2.46944,-0.87849 v -1.05488 l -0.7147,0.61195 -0.71471,0.61195 0.60574,0.44293 c 0.81682,0.59726 0.82367,0.59217 0.82367,-0.61195 z m -2.64583,-0.003 c -0.11992,-0.19402 -0.51679,-0.35277 -0.88195,-0.35277 -0.36515,0 -0.76203,0.15875 -0.88194,0.35277 l -0.21803,0.35278 h 1.09997 1.09998 z m -5.82084,-0.88194 c 0,-0.097 -0.0794,-0.17639 -0.17638,-0.17639 -0.097,0 -0.17639,0.0794 -0.17639,0.17639 0,0.097 0.0794,0.17639 0.17639,0.17639 0.097,0 0.17638,-0.0794 0.17638,-0.17639 z m 5.64445,-0.7467 c 0,-0.0744 -0.3175,-0.13525 -0.70556,-0.13525 -0.38805,0 -0.70555,0.14389 -0.70555,0.31975 v 0.31976 l 0.70555,-0.18451 c 0.38806,-0.10148 0.70556,-0.24537 0.70556,-0.31975 z m 7.41541,-0.30311 c -0.24544,-0.29573 -0.61016,-0.53769 -0.81051,-0.53769 h -0.36425 l 0.64047,0.70772 c 0.72957,0.80616 1.21599,0.65137 0.53429,-0.17003 z m -4.63819,-0.15792 c 0.0723,-0.0148 -0.0725,-0.27263 -0.32164,-0.57286 l -0.45302,-0.54586 -0.29032,0.45767 c -0.55785,0.8794 -0.41861,0.96582 1.06498,0.66105 z m -3.13,-0.73255 c 0,-0.19403 -0.16812,-0.35278 -0.3736,-0.35278 -0.20548,0 -0.27548,0.15875 -0.15557,0.35278 0.11992,0.19403 0.28804,0.35278 0.3736,0.35278 0.0856,0 0.15557,-0.15875 0.15557,-0.35278 z m -9.34861,-0.35278 c 0.11992,-0.19402 0.13865,-0.35277 0.0416,-0.35277 -0.097,0 -0.2745,0.15875 -0.39442,0.35277 -0.11991,0.19403 -0.13865,0.35278 -0.0416,0.35278 0.097,0 0.2745,-0.15875 0.39442,-0.35278 z m -0.0229,-1.0953 c -0.30784,-0.49809 -0.85909,-0.36829 -0.85909,0.20229 v 0.51809 l 0.52714,-0.20228 c 0.28992,-0.11126 0.4393,-0.3444 0.33195,-0.5181 z m 2.42173,-0.82324 0.54825,0.21039 -0.19179,-0.73343 -0.1918,-0.73342 h 0.36873 c 0.2028,0 0.64899,0.27782 0.99154,0.61736 l 0.62282,0.61737 -0.25008,-0.65988 -0.25009,-0.65988 0.63302,0.16554 0.63302,0.16554 0.40935,-0.43821 c 0.50437,-0.53994 0.21725,-0.8679 -0.75356,-0.86077 l -0.73496,0.005 0.52917,0.34198 0.52917,0.34197 -0.54277,0.005 c -0.83532,0.008 -2.97082,-1.21694 -3.10149,-1.7795 -0.16888,-0.72708 -0.8383,-1.05351 -1.64464,-0.80199 l -0.70279,0.21922 0.44721,-0.53885 0.44721,-0.53886 -0.53817,-0.20651 -0.53817,-0.20652 v 0.53892 0.53891 l -0.35278,-0.21803 c -0.19403,-0.11991 -0.35278,-0.0669 -0.35278,0.11783 0,0.18472 0.2185,0.4197 0.48556,0.52218 l 0.48556,0.18633 -0.17312,0.90564 -0.17312,0.90563 -0.31244,-0.19309 c -0.55172,-0.34098 -0.33291,0.80349 0.24537,1.28342 l 0.55782,0.46295 0.62028,-0.38737 0.62028,-0.38738 0.4546,0.28096 0.4546,0.28096 -0.23288,0.37682 -0.23288,0.37681 -0.59451,-0.22813 -0.59451,-0.22814 0.51761,0.57493 0.51761,0.57494 0.39615,-0.51391 0.39615,-0.51391 z m -2.82003,-1.13071 -0.42116,-0.17133 0.18856,-0.59457 c 0.10371,-0.32701 0.35356,-0.94021 0.55523,-1.36266 l 0.36667,-0.76809 0.63685,0.39773 c 0.35028,0.21875 0.55679,0.52729 0.45892,0.68565 -0.0979,0.15836 -0.28604,0.22262 -0.41816,0.14281 -0.13211,-0.0798 -0.47313,0.10656 -0.75781,0.41417 l -0.51762,0.55929 0.60581,-0.23247 0.6058,-0.23247 v 0.34171 c 0,0.18794 -0.24749,0.34171 -0.54998,0.34171 h -0.54999 l 0.21803,0.35277 c 0.23468,0.37973 0.21651,0.38516 -0.42115,0.12575 z m 2.09684,-0.007 c -0.24253,-0.0979 -0.42843,-0.44252 -0.41312,-0.7659 l 0.0279,-0.58796 0.17867,0.44317 c 0.0983,0.24374 0.32386,0.35344 0.50132,0.24376 l 0.32265,-0.1994 v 0.54998 c 0,0.3025 -0.0397,0.53746 -0.0882,0.52214 -0.0485,-0.0153 -0.28663,-0.10792 -0.52917,-0.20579 z m 1.55811,1.76234 c -0.12936,-0.12935 -0.34102,-0.12935 -0.47037,0 -0.12936,0.12936 -0.0235,0.23519 0.23518,0.23519 0.25871,0 0.36454,-0.10583 0.23519,-0.23519 z m -4.46852,-0.64675 c 0,-0.097 -0.0794,-0.17639 -0.17639,-0.17639 -0.097,0 -0.17639,0.0794 -0.17639,0.17639 0,0.097 0.0794,0.17638 0.17639,0.17638 0.097,0 0.17639,-0.0794 0.17639,-0.17638 z m 0.94074,-0.0588 c -0.12935,-0.12935 -0.34102,-0.12935 -0.47037,0 -0.12935,0.12935 -0.0235,0.23518 0.23518,0.23518 0.25871,0 0.36454,-0.10583 0.23519,-0.23518 z m 20.46111,-2.11667 c -0.12935,-0.12935 -0.23519,-0.0235 -0.23519,0.23519 0,0.2587 0.10584,0.36453 0.23519,0.23518 0.12935,-0.12935 0.12935,-0.34102 0,-0.47037 z m -15.75741,-0.64676 c 0,-0.097 -0.0794,-0.17639 -0.17639,-0.17639 -0.097,0 -0.17639,0.0794 -0.17639,0.17639 0,0.097 0.0794,0.17639 0.17639,0.17639 0.097,0 0.17639,-0.0794 0.17639,-0.17639 z m -1.76389,-2.11666 c 0,-0.097 -0.0794,-0.17639 -0.17639,-0.17639 -0.097,0 -0.17638,0.0794 -0.17638,0.17639 0,0.097 0.0794,0.17639 0.17638,0.17639 0.097,0 0.17639,-0.0794 0.17639,-0.17639 z m 11.99445,-1.03031 v -0.85391 l -1.08356,-0.23799 c -0.59596,-0.1309 -1.17804,-0.14351 -1.29352,-0.028 -0.11548,0.11548 0.066,0.20996 0.4032,0.20996 0.33724,0 0.83995,0.22678 1.11713,0.50397 0.57757,0.57757 0.67643,1.05536 0.15119,0.73075 -0.19403,-0.11992 -0.35278,-0.0499 -0.35278,0.15557 0,0.20548 0.23813,0.3736 0.52917,0.3736 h 0.52917 z m -14.46389,0.36795 c 0,-0.0733 -0.22399,-0.31909 -0.49776,-0.5463 l -0.49776,-0.4131 -0.2623,0.42441 -0.26231,0.42442 0.38291,-0.23665 0.38291,-0.23665 0.22159,0.35853 c 0.21808,0.35287 0.53272,0.48596 0.53272,0.22534 z m 3.52778,-0.39598 c 0,-0.097 -0.0794,-0.17639 -0.17639,-0.17639 -0.097,0 -0.17639,0.0794 -0.17639,0.17639 0,0.097 0.0794,0.17639 0.17639,0.17639 0.097,0 0.17639,-0.0794 0.17639,-0.17639 z m 3.175,-0.35277 c 0,-0.097 -0.0794,-0.17639 -0.17639,-0.17639 -0.097,0 -0.17639,0.0794 -0.17639,0.17639 0,0.097 0.0794,0.17638 0.17639,0.17638 0.097,0 0.17639,-0.0794 0.17639,-0.17638 z m 8.81944,0 c 0,-0.097 -0.0794,-0.17639 -0.17639,-0.17639 -0.097,0 -0.17639,0.0794 -0.17639,0.17639 0,0.097 0.0794,0.17638 0.17639,0.17638 0.097,0 0.17639,-0.0794 0.17639,-0.17638 z m -4.23333,-0.35278 c 0,-0.097 -0.0794,-0.17639 -0.17639,-0.17639 -0.097,0 -0.17639,0.0794 -0.17639,0.17639 0,0.097 0.0794,0.17639 0.17639,0.17639 0.097,0 0.17639,-0.0794 0.17639,-0.17639 z m 5.17407,-0.41158 c -0.12935,-0.12935 -0.23518,-0.0235 -0.23518,0.23519 0,0.2587 0.10583,0.36454 0.23518,0.23518 0.12935,-0.12935 0.12935,-0.34101 0,-0.47037 z m -8.11389,0 c -0.12935,-0.12935 -0.34102,-0.12935 -0.47037,0 -0.12935,0.12936 -0.0235,0.23519 0.23519,0.23519 0.2587,0 0.36454,-0.10583 0.23518,-0.23519 z m 0.1176,-0.64676 c 0,-0.097 -0.0794,-0.17638 -0.17639,-0.17638 -0.097,0 -0.17639,0.0794 -0.17639,0.17638 0,0.097 0.0794,0.17639 0.17639,0.17639 0.097,0 0.17639,-0.0794 0.17639,-0.17639 z m 4.777,-0.19986 c 0.36197,-0.58568 0.0371,-0.6669 -0.46939,-0.11733 l -0.45488,0.49358 h 0.34587 c 0.19023,0 0.45051,-0.16931 0.5784,-0.37625 z m 3.92485,-0.21171 c -0.12935,-0.12935 -0.23519,-0.0235 -0.23519,0.23519 0,0.2587 0.10584,0.36453 0.23519,0.23518 0.12935,-0.12935 0.12935,-0.34102 0,-0.47037 z m 1.88148,0.41157 c 0,-0.097 -0.0794,-0.17638 -0.17639,-0.17638 -0.097,0 -0.17639,0.0794 -0.17639,0.17638 0,0.097 0.0794,0.17639 0.17639,0.17639 0.097,0 0.17639,-0.0794 0.17639,-0.17639 z m -11.28889,-0.35277 c 0,-0.097 -0.0794,-0.17639 -0.17639,-0.17639 -0.097,0 -0.17639,0.0794 -0.17639,0.17639 0,0.097 0.0794,0.17639 0.17639,0.17639 0.097,0 0.17639,-0.0794 0.17639,-0.17639 z m 7.40833,-0.3736 v -0.54999 l -0.35853,0.22159 c -0.19719,0.12187 -0.2672,0.36936 -0.15557,0.54998 0.30242,0.48932 0.5141,0.39808 0.5141,-0.22158 z m -2.46944,-0.33196 c 0,-0.097 -0.0794,-0.17639 -0.17639,-0.17639 -0.097,0 -0.17639,0.0794 -0.17639,0.17639 0,0.097 0.0794,0.17639 0.17639,0.17639 0.097,0 0.17639,-0.0794 0.17639,-0.17639 z m 3.31505,-0.47037 c 0.0999,-0.16169 -0.0425,-0.29398 -0.31644,-0.29398 -0.27397,0 -0.41637,0.13229 -0.31644,0.29398 0.0999,0.16169 0.24233,0.29398 0.31644,0.29398 0.0741,0 0.21651,-0.13229 0.31644,-0.29398 z m 3.30688,-0.12494 c -0.0768,-0.23041 -0.33212,-0.45663 -0.56738,-0.50271 l -0.42775,-0.0838 0.3638,0.18006 c 0.20009,0.099 0.27406,0.32525 0.16439,0.5027 -0.10968,0.17746 -0.0181,0.32265 0.20359,0.32265 0.22165,0 0.34015,-0.18851 0.26335,-0.41892 z m -14.47859,-0.14699 c -0.11722,-0.11723 -0.42149,-0.12976 -0.67615,-0.0279 l -0.46302,0.18528 0.67615,0.0279 c 0.37189,0.0153 0.58025,-0.0681 0.46302,-0.18528 z m 4.68166,-0.31603 c 0,-0.097 -0.0794,-0.17639 -0.17639,-0.17639 -0.097,0 -0.17639,0.0794 -0.17639,0.17639 0,0.097 0.0794,0.17639 0.17639,0.17639 0.097,0 0.17639,-0.0794 0.17639,-0.17639 z m 7.64352,-0.0588 c -0.12935,-0.12935 -0.34102,-0.12935 -0.47037,0 -0.12935,0.12935 -0.0235,0.23519 0.23518,0.23519 0.25871,0 0.36454,-0.10584 0.23519,-0.23519 z m 2.41102,-1.85337 c -0.0101,-0.76066 0.10469,-1.30691 0.25518,-1.21391 0.15049,0.093 0.27361,-0.069 0.27361,-0.36006 0,-0.84191 -0.53092,-0.94441 -1.14952,-0.22193 l -0.56983,0.66551 0.4187,0.17051 0.41871,0.17051 -0.70556,0.0696 c -0.38805,0.0383 -0.78493,0.066 -0.88194,0.0616 -0.097,-0.004 -0.36255,0.19508 -0.59008,0.44329 l -0.41369,0.4513 h 0.93223 0.93222 l 0.3616,0.57327 c 0.56144,0.89005 0.73837,0.69061 0.71837,-0.80974 z m -15.81658,0.79504 c -0.12935,-0.12935 -0.34102,-0.12935 -0.47037,0 -0.12935,0.12935 -0.0235,0.23518 0.23519,0.23518 0.2587,0 0.36453,-0.10583 0.23518,-0.23518 z m 14.11111,0 c -0.12935,-0.12935 -0.34102,-0.12935 -0.47037,0 -0.12935,0.12935 -0.0235,0.23518 0.23519,0.23518 0.2587,0 0.36454,-0.10583 0.23518,-0.23518 z m -17.56927,-2.74847 c -0.1642,-0.15891 -1.05806,-0.28725 -1.62377,-0.23315 l -0.43702,0.0418 0.0709,0.85651 c 0.039,0.47109 0.19596,0.77922 0.34883,0.68474 0.15286,-0.0945 0.27794,0.0178 0.27794,0.2494 0,0.23164 0.33559,-0.005 0.74577,-0.52693 0.41018,-0.52145 0.68799,-1.00402 0.61736,-1.07237 z m 1.2827,1.21976 c 0.11991,-0.19402 0.13865,-0.35277 0.0416,-0.35277 -0.097,0 -0.2745,0.15875 -0.39442,0.35277 -0.11991,0.19403 -0.13865,0.35278 -0.0416,0.35278 0.097,0 0.2745,-0.15875 0.39442,-0.35278 z m 8.81944,-1.41111 0.21803,-0.35277 h -0.5708 -0.57081 l 0.21803,0.35277 c 0.11991,0.19403 0.27866,0.35278 0.35278,0.35278 0.0741,0 0.23286,-0.15875 0.35277,-0.35278 z m -2.76342,-0.23518 c -0.12935,-0.12935 -0.34102,-0.12935 -0.47037,0 -0.12935,0.12935 -0.0235,0.23518 0.23518,0.23518 0.25871,0 0.36454,-0.10583 0.23519,-0.23518 z m 1.41111,0 c -0.12935,-0.12935 -0.34102,-0.12935 -0.47037,0 -0.12935,0.12935 -0.0235,0.23518 0.23518,0.23518 0.25871,0 0.36454,-0.10583 0.23519,-0.23518 z m 3.19705,0.0221 c -0.11723,-0.11723 -0.4215,-0.12976 -0.67616,-0.0279 l -0.46302,0.18528 0.67616,0.0279 c 0.37188,0.0153 0.58024,-0.0681 0.46302,-0.18528 z M 150.5197,143.67222 c -2.66217,-0.94836 -4.43467,-2.86749 -5.16978,-5.59749 l -0.38538,-1.4312 0.22454,-1.40424 c 0.12351,-0.77233 0.57508,-2.02942 1.0035,-2.79354 l 0.77895,-1.38931 7.8493,-5.99726 7.84931,-5.99726 V 108.37213 97.68234 l 0.55436,-0.554365 0.55437,-0.554365 h 7.36231 7.36232 l 0.2854,0.440972 c 0.15697,0.242535 0.36478,2.387879 0.46179,4.767428 l 0.17639,4.32646 13.05278,-10.052105 13.05278,-10.052106 0.88194,-4.8e-5 0.88195,-4.8e-5 15.90524,12.252084 c 8.74789,6.738643 18.66976,14.389453 22.04861,17.001793 3.37885,2.61234 9.08024,6.99979 12.66976,9.7499 9.07126,6.94996 9.35723,7.26294 9.7625,10.68478 l 0.19977,1.68674 -0.76504,1.72948 c -0.93369,2.11077 -1.88047,3.16248 -3.72918,4.14246 l -1.41111,0.74802 -2.30352,-0.007 -2.30353,-0.007 -1.47152,-0.86306 c -0.80934,-0.47468 -3.90025,-2.75707 -6.8687,-5.07196 -5.75477,-4.48777 -13.91058,-10.77108 -31.50273,-24.26999 l -10.93611,-8.39156 -0.4253,0.16189 c -0.39461,0.15021 -2.97573,2.11591 -21.09414,16.06464 -3.68653,2.83813 -10.90966,8.39522 -16.05139,12.3491 -5.14174,3.95387 -9.9484,7.65302 -10.68147,8.22033 -2.38388,1.84483 -5.27401,2.39498 -7.81897,1.48838 z m 109.86988,-3.53055 c 0,-0.097 -0.0794,-0.17639 -0.17639,-0.17639 -0.097,0 -0.17639,0.0794 -0.17639,0.17639 0,0.097 0.0794,0.17638 0.17639,0.17638 0.097,0 0.17639,-0.0794 0.17639,-0.17638 z m -108.83194,-0.57758 c -0.38806,-0.20886 -1.08017,-0.79934 -1.53803,-1.31219 -0.45785,-0.51285 -0.71205,-0.69433 -0.56487,-0.40329 0.50738,1.00338 1.69816,2.11664 2.25259,2.10594 l 0.55586,-0.0107 z m 111.14103,-0.46472 c 0.47625,-0.47625 0.86591,-1.11125 0.86591,-1.41111 v -0.54521 l -0.44097,0.0882 -0.44097,0.0882 0.10057,-0.4781 c 0.0553,-0.26296 -0.0832,-0.69952 -0.30778,-0.97014 l -0.40835,-0.49203 h 0.74875 0.74875 v -0.56402 c 0,-0.31021 -0.50485,-1.03562 -1.12189,-1.61203 l -1.1219,-1.048 -0.64199,0.20091 c -0.3531,0.1105 -0.96186,0.29942 -1.3528,0.41982 l -0.71079,0.2189 0.25008,-0.65987 0.25009,-0.65988 -0.63265,0.62719 -0.63266,0.6272 0.43101,0.51933 0.431,0.51933 h -0.39597 c -0.21779,0 -0.50509,0.004 -0.63845,0.01 -0.41072,0.0164 -0.44478,-1.19417 -0.0471,-1.67338 l 0.37594,-0.45298 h -0.36146 c -0.19881,0 -0.52421,-0.46684 -0.72311,-1.03741 l -0.36164,-1.0374 0.57521,-0.11078 0.57521,-0.11077 -2.49609,-1.85043 c -2.48293,-1.84068 -3.21237,-2.22546 -2.72552,-1.43771 l 0.25508,0.41273 -0.57574,-0.22093 -0.57574,-0.22093 -0.22337,0.36142 c -0.12285,0.19878 -0.45976,0.27071 -0.74869,0.15984 -0.28892,-0.11088 -0.68669,-0.10185 -0.88392,0.02 l -0.35861,0.22163 0.47864,0.33929 0.47863,0.33928 -0.79339,-0.17387 -0.7934,-0.17388 -0.23125,0.37417 -0.23125,0.37417 0.40729,-0.25172 0.40728,-0.25172 v 0.30826 c 0,0.16955 -0.57268,0.58136 -1.27263,0.91514 l -1.27263,0.60687 0.17437,0.66679 0.17437,0.6668 -0.57743,-0.21605 -0.57744,-0.21605 0.46208,0.5686 c 1.09752,1.35053 5.10796,4.11251 4.46807,3.07714 l -0.22676,-0.36691 0.86079,0.21604 0.86078,0.21605 0.57989,-0.57989 c 0.31893,-0.31893 0.57988,-0.74427 0.57988,-0.9452 v -0.36532 l 0.54748,0.21009 0.54749,0.21009 -0.19268,-0.31177 c -0.26811,-0.43381 0.73195,-0.76417 1.47896,-0.48856 0.90701,0.33465 1.14398,0.85956 0.73393,1.62573 l -0.36335,0.67894 0.351,-0.21694 0.35101,-0.21693 0.18696,0.48721 0.18696,0.48721 -0.67916,-0.1776 c -0.37354,-0.0977 -0.67916,-0.31784 -0.67916,-0.48924 0,-0.1714 -0.13674,-0.31163 -0.30386,-0.31163 h -0.30385 l 0.16603,0.86857 0.16604,0.86857 -0.54254,0.54254 c -0.29839,0.2984 -0.72199,0.54254 -0.94133,0.54254 h -0.3988 l 0.23243,0.37608 c 0.95196,1.5403 3.43236,2.65316 4.20079,1.88472 0.30878,-0.30878 0.83606,-0.61413 1.17173,-0.67856 0.33567,-0.0644 0.6103,-0.14144 0.6103,-0.17113 0,-0.25616 1.24534,-0.20153 1.62842,0.0714 l 0.48825,0.3479 -0.58287,-0.18536 c -0.32058,-0.10194 -0.691,-0.0772 -0.82315,0.0549 -0.24537,0.24537 -0.4423,0.29512 -1.475,0.37257 l -0.58796,0.0441 0.26008,0.26008 c 0.14305,0.14305 0.44732,0.27762 0.67616,0.29904 0.22884,0.0214 0.70326,0.0631 1.05426,0.0927 l 0.63818,0.0537 -0.21803,0.35278 -0.21803,0.35278 h 0.56602 c 0.31131,0 0.95568,-0.38966 1.43193,-0.86591 z m -6.71881,-3.7202 c -0.11992,-0.19403 -0.0499,-0.35278 0.15557,-0.35278 0.20548,0 0.3736,0.15875 0.3736,0.35278 0,0.19402 -0.07,0.35277 -0.15557,0.35277 -0.0856,0 -0.25369,-0.15875 -0.3736,-0.35277 z m -0.52917,-4.23334 c 0,-0.19403 0.23813,-0.35278 0.52917,-0.35278 0.29104,0 0.52917,0.15875 0.52917,0.35278 0,0.19403 -0.23813,0.35278 -0.52917,0.35278 -0.29104,0 -0.52917,-0.15875 -0.52917,-0.35278 z m -0.70555,-0.17639 c 0,-0.097 0.0794,-0.17639 0.17639,-0.17639 0.097,0 0.17638,0.0794 0.17638,0.17639 0,0.097 -0.0794,0.17639 -0.17638,0.17639 -0.097,0 -0.17639,-0.0794 -0.17639,-0.17639 z m 1.05833,-0.70555 c 0,-0.097 0.0794,-0.17639 0.17639,-0.17639 0.097,0 0.17639,0.0794 0.17639,0.17639 0,0.097 -0.0794,0.17639 -0.17639,0.17639 -0.097,0 -0.17639,-0.0794 -0.17639,-0.17639 z m -98.4945,7.90698 c 1.66819,-1.2268 1.78252,-1.39349 0.77506,-1.13003 l -0.70556,0.1845 v -0.3372 -0.33721 l -1.07206,0.0638 c -0.58963,0.0351 -1.15463,-0.0698 -1.25554,-0.2331 -0.10092,-0.16328 -0.5313,-0.28572 -0.95641,-0.27208 l -0.77293,0.0248 0.70555,0.30319 0.70556,0.30319 -0.70556,0.0365 -0.70555,0.0365 0.82066,0.68396 c 0.45136,0.37618 0.72818,0.83359 0.61516,1.01647 -0.17749,0.28718 0.23653,0.62641 0.87593,0.71769 0.10729,0.0153 0.86136,-0.46213 1.67569,-1.061 z m -4.44036,-2.32052 c -0.18353,-0.35616 -0.24995,-0.8857 -0.1476,-1.17674 l 0.18609,-0.52917 -0.58654,0.48417 c -0.32259,0.26629 -0.5841,0.74254 -0.58113,1.05833 l 0.005,0.57417 0.30881,-0.48758 0.30881,-0.48759 0.24716,0.77875 c 0.13595,0.42832 0.32491,0.70102 0.41993,0.606 0.095,-0.095 0.0226,-0.46417 -0.16093,-0.82034 z m 1.21727,-0.35359 c -0.12935,-0.12935 -0.34102,-0.12935 -0.47037,0 -0.12935,0.12935 -0.0235,0.23518 0.23518,0.23518 0.25871,0 0.36454,-0.10583 0.23519,-0.23518 z m -2.79283,-0.82639 c 0.93811,-0.6137 1.0231,-1.24438 0.20975,-1.55649 l -0.58401,-0.22411 -0.82711,0.77703 c -0.4549,0.42736 -0.8271,0.9658 -0.8271,1.19653 v 0.4195 l 0.61736,-0.0466 c 0.33955,-0.0256 0.97455,-0.28026 1.41111,-0.56586 z m 102.74653,-0.52593 c 0,-0.097 -0.0794,-0.17639 -0.17639,-0.17639 -0.097,0 -0.17639,0.0794 -0.17639,0.17639 0,0.097 0.0794,0.17639 0.17639,0.17639 0.097,0 0.17639,-0.0794 0.17639,-0.17639 z m -89.22857,-1.78251 2.08728,-1.60613 -0.88231,-0.88231 -0.88231,-0.88231 -0.37849,0.23392 -0.37849,0.23392 -1.08423,-1.00868 c -0.59632,-0.55477 -0.96852,-0.77055 -0.82711,-0.47951 l 0.25711,0.52917 -0.50202,-0.61188 -0.50201,-0.61188 -0.28591,0.2591 -0.28591,0.2591 0.20758,-0.58101 0.20758,-0.58102 -0.94512,-0.18691 -0.94512,-0.18692 -0.70556,0.47131 c -0.38806,0.25922 -1.26118,0.97418 -1.94028,1.58879 l -1.23472,1.11749 0.62552,-0.19556 0.62553,-0.19557 -0.38765,0.72432 -0.38764,0.72432 0.82045,-0.43229 c 0.45125,-0.23776 0.94992,-0.60697 1.10815,-0.82045 l 0.28769,-0.38816 -0.21783,0.77661 -0.21783,0.77661 1.42944,0.94596 c 0.7862,0.52028 1.42945,1.13873 1.42945,1.37434 0,0.33749 1.03777,1.07986 1.70249,1.21788 0.0632,0.0131 1.05426,-0.69888 2.20227,-1.58225 z m -4.20701,-1.1774 -0.47863,-0.30328 0.35347,-0.21846 0.35348,-0.21846 0.20228,0.52714 c 0.23376,0.60917 0.21174,0.62006 -0.4306,0.21306 z m 1.71336,-0.56786 c 0,-0.097 0.0794,-0.17639 0.17639,-0.17639 0.097,0 0.17639,0.0794 0.17639,0.17639 0,0.097 -0.0794,0.17638 -0.17639,0.17638 -0.097,0 -0.17639,-0.0794 -0.17639,-0.17638 z m -1.05833,-0.70556 c 0,-0.097 0.0794,-0.17639 0.17638,-0.17639 0.097,0 0.17639,0.0794 0.17639,0.17639 0,0.097 -0.0794,0.17639 -0.17639,0.17639 -0.097,0 -0.17638,-0.0794 -0.17638,-0.17639 z m 1.05833,-0.70556 c 0,-0.097 0.0794,-0.17638 0.17639,-0.17638 0.097,0 0.17639,0.0794 0.17639,0.17638 0,0.097 -0.0794,0.17639 -0.17639,0.17639 -0.097,0 -0.17639,-0.0794 -0.17639,-0.17639 z m -1.41111,-0.35277 c 0,-0.097 0.0794,-0.17639 0.17639,-0.17639 0.097,0 0.17639,0.0794 0.17639,0.17639 0,0.097 -0.0794,0.17639 -0.17639,0.17639 -0.097,0 -0.17639,-0.0794 -0.17639,-0.17639 z m -1.05834,-1.76389 c 0,-0.097 0.0794,-0.17639 0.17639,-0.17639 0.097,0 0.17639,0.0794 0.17639,0.17639 0,0.097 -0.0794,0.17639 -0.17639,0.17639 -0.097,0 -0.17639,-0.0794 -0.17639,-0.17639 z m 94.19167,5.99722 c 0,-0.097 -0.0794,-0.17639 -0.17639,-0.17639 -0.097,0 -0.17639,0.0794 -0.17639,0.17639 0,0.097 0.0794,0.17639 0.17639,0.17639 0.097,0 0.17639,-0.0794 0.17639,-0.17639 z m 2.11667,0 c 0,-0.097 -0.0794,-0.17639 -0.17639,-0.17639 -0.097,0 -0.17639,0.0794 -0.17639,0.17639 0,0.097 0.0794,0.17639 0.17639,0.17639 0.097,0 0.17639,-0.0794 0.17639,-0.17639 z m 4.23333,-1.41111 c 0,-0.097 -0.0794,-0.17639 -0.17639,-0.17639 -0.097,0 -0.17639,0.0794 -0.17639,0.17639 0,0.097 0.0794,0.17639 0.17639,0.17639 0.097,0 0.17639,-0.0794 0.17639,-0.17639 z m -14.2287,-2.88102 c -0.12935,-0.12935 -0.23519,-0.0235 -0.23519,0.23519 0,0.2587 0.10584,0.36453 0.23519,0.23518 0.12935,-0.12935 0.12935,-0.34102 0,-0.47037 z m -3.28825,-2.37152 1.00388,-0.2459 0.56315,0.45616 0.56314,0.45617 -0.30843,-0.51135 c -0.16963,-0.28125 -0.32441,-0.87656 -0.34395,-1.32292 l -0.0355,-0.81157 h 0.8054 c 0.82229,0 2.21651,-1.11732 2.21651,-1.7763 v -0.36519 l 0.79375,0.38242 0.79375,0.38242 -1.28131,-1.16376 c -0.70472,-0.64006 -2.04308,-1.71014 -2.97413,-2.37796 l -1.69282,-1.2142 0.21783,0.56765 0.21783,0.56764 -0.52522,0.20155 -0.52521,0.20154 0.23889,-0.38653 0.23889,-0.38653 -0.83793,0.26963 c -0.46086,0.1483 -1.02123,0.27114 -1.24527,0.27298 -0.22403,0.002 -0.33754,0.18522 -0.25224,0.4075 l 0.15509,0.40416 -0.88844,0.47548 c -0.48864,0.26151 -0.97596,0.75125 -1.08294,1.08831 l -0.1945,0.61283 -0.74845,-0.19572 -0.74845,-0.19572 0.25237,0.40834 0.25238,0.40835 h -0.54999 c -0.98192,0 -0.57024,0.49641 1.98851,2.39781 l 2.51467,1.86865 0.20744,-0.31502 c 0.1141,-0.17326 0.6592,-0.42568 1.21133,-0.56092 z m 0.9364,-0.74468 c 0,-0.097 0.0794,-0.17639 0.17638,-0.17639 0.097,0 0.17639,0.0794 0.17639,0.17639 0,0.097 -0.0794,0.17639 -0.17639,0.17639 -0.097,0 -0.17638,-0.0794 -0.17638,-0.17639 z m -2.46945,-5.46806 c 0,-0.2587 0.10583,-0.36454 0.23519,-0.23518 0.12935,0.12935 0.12935,0.34101 0,0.47037 -0.12936,0.12935 -0.23519,0.0235 -0.23519,-0.23519 z m 0.70556,0.17639 c 0,-0.097 0.0794,-0.17639 0.17639,-0.17639 0.097,0 0.17638,0.0794 0.17638,0.17639 0,0.097 -0.0794,0.17639 -0.17638,0.17639 -0.097,0 -0.17639,-0.0794 -0.17639,-0.17639 z m 1.41111,6.70278 c 0,-0.097 -0.0794,-0.17639 -0.17639,-0.17639 -0.097,0 -0.17639,0.0794 -0.17639,0.17639 0,0.097 0.0794,0.17639 0.17639,0.17639 0.097,0 0.17639,-0.0794 0.17639,-0.17639 z m -69.44885,-1.80111 c 2.46089,-1.89362 2.4623,-1.88493 -0.33511,-2.06302 -1.17964,-0.0751 -2.43114,-0.30313 -2.78111,-0.50673 l -0.63632,-0.37019 0.61736,-0.0107 c 0.7654,-0.0133 0.81194,-0.66376 0.0679,-0.94926 l -0.54944,-0.21084 0.17569,-0.45785 c 0.0966,-0.25182 -0.046,-0.64188 -0.31705,-0.86679 l -0.49274,-0.40895 -0.42274,0.26127 -0.42274,0.26127 0.28,-0.45305 0.28,-0.45306 -0.39278,0.13397 c -0.21603,0.0737 -1.36158,0.84031 -2.54567,1.70364 l -2.15288,1.56968 0.82087,0.33927 c 1.06172,0.43882 1.19753,0.47489 2.14378,0.56938 l 0.79375,0.0793 -0.87839,0.24448 -0.87838,0.24449 0.51551,0.3186 c 0.28353,0.17524 0.98799,0.28261 1.56546,0.23861 0.57747,-0.044 0.94014,0.0298 0.80594,0.164 -0.13421,0.13421 0.0944,0.41693 0.50807,0.62828 0.41364,0.21135 0.71845,0.53682 0.67736,0.72327 -0.0597,0.27066 0.62403,0.7193 1.3272,0.87092 0.0632,0.0136 1.06514,-0.70633 2.22644,-1.59992 z m -1.10671,-1.37389 c 0,-0.097 0.0794,-0.17639 0.17639,-0.17639 0.097,0 0.17639,0.0794 0.17639,0.17639 0,0.097 -0.0794,0.17639 -0.17639,0.17639 -0.097,0 -0.17639,-0.0794 -0.17639,-0.17639 z m -3.52778,-2.66666 c 0,-0.20547 0.15875,-0.27548 0.35278,-0.15556 0.19403,0.11991 0.35278,0.28803 0.35278,0.37359 0,0.0856 -0.15875,0.15557 -0.35278,0.15557 -0.19403,0 -0.35278,-0.16812 -0.35278,-0.3736 z m 79.90499,5.22736 0.28869,0.26152 -0.26436,-0.4581 -0.26435,-0.45811 -0.49776,0.41311 c -0.27377,0.22721 -0.49776,0.49248 -0.49776,0.58949 0,0.097 0.21304,-4.2e-4 0.47343,-0.21652 l 0.47343,-0.39292 z m 1.2339,-0.79681 c 0,-0.097 -0.0794,-0.17639 -0.17639,-0.17639 -0.097,0 -0.17638,0.0794 -0.17638,0.17639 0,0.097 0.0794,0.17639 0.17638,0.17639 0.097,0 0.17639,-0.0794 0.17639,-0.17639 z m -78.31666,-3.175 c 0,-0.097 -0.0794,-0.17639 -0.17639,-0.17639 -0.097,0 -0.17639,0.0794 -0.17639,0.17639 0,0.097 0.0794,0.17639 0.17639,0.17639 0.097,0 0.17639,-0.0794 0.17639,-0.17639 z m 62.33092,-1.01449 -0.18624,-0.48532 0.58946,0.0443 0.58947,0.0443 0.1122,-0.97612 c 0.0617,-0.53687 0.24216,-0.89581 0.401,-0.79764 0.15884,0.0982 0.48497,-0.0579 0.72474,-0.3468 0.23977,-0.2889 0.65464,-0.52528 0.92192,-0.52528 0.26728,0 0.48597,-0.16812 0.48597,-0.3736 0,-0.20547 0.14778,-0.28226 0.3284,-0.17063 0.18062,0.11163 0.42812,0.0416 0.54999,-0.15557 0.12187,-0.19719 0.41065,-0.3561 0.64174,-0.35313 l 0.42015,0.005 -0.52917,0.34198 -0.52916,0.34197 0.42015,0.005 c 0.71024,0.009 0.86336,-0.63779 0.23429,-0.98983 l -0.59512,-0.33305 -0.9998,0.28674 -0.9998,0.28674 v -0.81958 -0.81957 l 0.561,-0.21528 c 0.30855,-0.1184 0.74511,-0.10491 0.97014,0.03 l 0.40914,0.24526 -0.49394,-0.60866 c -1.43445,-1.76761 -5.60318,-4.63616 -5.19619,-3.57556 l 0.20619,0.53733 -0.67442,-0.36094 c -0.37094,-0.19852 -0.95333,-0.36094 -1.29421,-0.36094 h -0.61979 l 0.65227,0.47695 0.65227,0.47695 -0.95384,0.23939 c -0.52462,0.13167 -1.1053,0.1458 -1.2904,0.0314 -0.18511,-0.1144 -0.33656,-0.0399 -0.33656,0.1656 0,0.79066 -0.12458,0.92129 -1.46447,1.53555 l -1.38032,0.63279 0.206,0.33331 0.206,0.33331 -0.60537,-0.2323 -0.60536,-0.2323 0.21641,0.35015 c 0.11902,0.19258 1.40968,1.26413 2.86814,2.38122 l 2.65173,2.03106 0.37347,-0.23082 0.37348,-0.23082 -0.0969,0.37057 c -0.0533,0.20382 0.37932,0.76553 0.9614,1.24826 1.23202,1.02172 1.37633,1.07536 1.12398,0.41774 z m -1.30037,-0.92579 -0.50873,-0.31442 0.26025,-0.26024 0.26024,-0.26025 0.41158,0.41158 c 0.53301,0.53301 0.23551,0.83052 -0.42334,0.42333 z m 1.52871,-0.23519 c 0.12935,-0.12935 0.34101,-0.12935 0.47037,0 0.12935,0.12936 0.0235,0.23519 -0.23519,0.23519 -0.2587,0 -0.36454,-0.10583 -0.23518,-0.23519 z m -0.4707,-0.82335 -0.50907,-0.31462 0.69567,-0.24976 c 0.38262,-0.13737 0.85442,-0.33513 1.04845,-0.43947 0.19403,-0.10435 0.11988,0.11857 -0.16476,0.49536 -0.28465,0.3768 -0.52737,0.71614 -0.53938,0.7541 -0.012,0.0379 -0.25093,-0.0726 -0.53091,-0.24561 z m 1.9406,-1.05813 c -0.11991,-0.19403 -0.0499,-0.35278 0.15557,-0.35278 0.20548,0 0.3736,0.15875 0.3736,0.35278 0,0.19403 -0.07,0.35278 -0.15557,0.35278 -0.0856,0 -0.25368,-0.15875 -0.3736,-0.35278 z m 0.17639,-1.41111 c 0,-0.2587 0.10584,-0.36454 0.23519,-0.23518 0.12935,0.12935 0.12935,0.34101 0,0.47037 -0.12935,0.12935 -0.23519,0.0235 -0.23519,-0.23519 z m 1.05834,-1.94028 c 0,-0.097 0.0794,-0.17639 0.17638,-0.17639 0.097,0 0.17639,0.0794 0.17639,0.17639 0,0.097 -0.0794,0.17639 -0.17639,0.17639 -0.097,0 -0.17638,-0.0794 -0.17638,-0.17639 z m -0.47037,6.64398 c -0.12936,-0.12935 -0.34102,-0.12935 -0.47037,0 -0.12936,0.12936 -0.0235,0.23519 0.23518,0.23519 0.2587,0 0.36454,-0.10583 0.23519,-0.23519 z m -57.73797,-0.64675 c 0,-0.097 -0.0794,-0.17639 -0.17639,-0.17639 -0.097,0 -0.17639,0.0794 -0.17639,0.17639 0,0.097 0.0794,0.17638 0.17639,0.17638 0.097,0 0.17639,-0.0794 0.17639,-0.17638 z m 0.70556,-0.70556 c 0,-0.097 -0.0794,-0.17639 -0.17639,-0.17639 -0.097,0 -0.17639,0.0794 -0.17639,0.17639 0,0.097 0.0794,0.17639 0.17639,0.17639 0.097,0 0.17639,-0.0794 0.17639,-0.17639 z m 57.50278,0 c 0,-0.097 -0.0794,-0.17639 -0.17639,-0.17639 -0.097,0 -0.17639,0.0794 -0.17639,0.17639 0,0.097 0.0794,0.17639 0.17639,0.17639 0.097,0 0.17639,-0.0794 0.17639,-0.17639 z m -56.79723,-0.35278 c 0,-0.097 -0.0794,-0.17639 -0.17639,-0.17639 -0.097,0 -0.17638,0.0794 -0.17638,0.17639 0,0.097 0.0794,0.17639 0.17638,0.17639 0.097,0 0.17639,-0.0794 0.17639,-0.17639 z m 55.73889,0 c 0,-0.097 -0.0794,-0.17639 -0.17639,-0.17639 -0.097,0 -0.17639,0.0794 -0.17639,0.17639 0,0.097 0.0794,0.17639 0.17639,0.17639 0.097,0 0.17639,-0.0794 0.17639,-0.17639 z m 0.70556,-0.35278 c 0,-0.097 -0.0794,-0.17638 -0.17639,-0.17638 -0.097,0 -0.17639,0.0794 -0.17639,0.17638 0,0.097 0.0794,0.17639 0.17639,0.17639 0.097,0 0.17639,-0.0794 0.17639,-0.17639 z m -50.55879,-4.25142 c 0.066,-0.19794 -0.15974,-0.38548 -0.5016,-0.41676 -0.34185,-0.0313 -1.0561,-0.13047 -1.58722,-0.22042 l -0.96566,-0.16356 0.34426,0.64325 c 0.18934,0.35379 0.46514,0.71045 0.61288,0.79257 0.14775,0.0821 0.0748,0.10271 -0.16214,0.0457 -0.23692,-0.057 -0.68788,0.15354 -1.00215,0.46781 l -0.57139,0.57139 -0.27667,-0.44766 -0.27666,-0.44765 -0.25617,0.41449 c -0.14089,0.22797 -0.46835,0.33307 -0.72767,0.23356 l -0.47151,-0.18093 -0.11017,0.77424 c -0.0606,0.42583 -0.30861,0.79409 -0.55115,0.81834 -0.78236,0.0782 -0.8392,0.12612 -0.60316,0.50805 l 0.23224,0.37576 0.68567,-0.62053 0.68568,-0.62053 0.19881,0.76023 0.1988,0.76024 2.49251,-1.84387 c 1.37088,-1.01414 2.5465,-2.00583 2.61247,-2.20376 z m -6.94399,3.19309 c 0,-0.097 0.0794,-0.17639 0.17639,-0.17639 0.097,0 0.17639,0.0794 0.17639,0.17639 0,0.097 -0.0794,0.17639 -0.17639,0.17639 -0.097,0 -0.17639,-0.0794 -0.17639,-0.17639 z m 59.09028,0.52917 c 0.11991,-0.19403 0.0499,-0.35278 -0.15557,-0.35278 -0.20548,0 -0.3736,0.15875 -0.3736,0.35278 0,0.19403 0.07,0.35278 0.15557,0.35278 0.0856,0 0.25368,-0.15875 0.3736,-0.35278 z m 2.29305,-1.23472 c 0,-0.097 -0.0794,-0.17639 -0.17639,-0.17639 -0.097,0 -0.17638,0.0794 -0.17638,0.17639 0,0.097 0.0794,0.17638 0.17638,0.17638 0.097,0 0.17639,-0.0794 0.17639,-0.17638 z m 0.25652,-0.88195 c -0.49333,-0.38805 -1.03068,-0.70027 -1.1941,-0.69382 -0.41938,0.0166 1.28994,1.39938 1.7298,1.39938 0.1987,0 -0.0424,-0.3175 -0.5357,-0.70556 z m -63.05096,0.17639 c 0,-0.097 -0.0794,-0.17639 -0.17639,-0.17639 -0.097,0 -0.17639,0.0794 -0.17639,0.17639 0,0.097 0.0794,0.17639 0.17639,0.17639 0.097,0 0.17639,-0.0794 0.17639,-0.17639 z m -5.99722,-0.35278 c 0,-0.097 -0.0794,-0.17639 -0.17639,-0.17639 -0.097,0 -0.17639,0.0794 -0.17639,0.17639 0,0.097 0.0794,0.17639 0.17639,0.17639 0.097,0 0.17639,-0.0794 0.17639,-0.17639 z m 6.70277,-0.35278 c 0,-0.097 -0.0794,-0.17638 -0.17638,-0.17638 -0.097,0 -0.17639,0.0794 -0.17639,0.17638 0,0.097 0.0794,0.17639 0.17639,0.17639 0.097,0 0.17638,-0.0794 0.17638,-0.17639 z m 1.41112,0 c 0,-0.097 -0.0794,-0.17638 -0.17639,-0.17638 -0.097,0 -0.17639,0.0794 -0.17639,0.17638 0,0.097 0.0794,0.17639 0.17639,0.17639 0.097,0 0.17639,-0.0794 0.17639,-0.17639 z m 57.67916,-0.17638 c 0.11992,-0.19403 0.13866,-0.35278 0.0416,-0.35278 -0.097,0 -0.2745,0.15875 -0.39442,0.35278 -0.11991,0.19402 -0.13865,0.35277 -0.0416,0.35277 0.097,0 0.27451,-0.15875 0.39442,-0.35277 z m -64.55833,-0.35278 c 0.11991,-0.19403 0.13865,-0.35278 0.0416,-0.35278 -0.097,0 -0.2745,0.15875 -0.39442,0.35278 -0.11991,0.19403 -0.13865,0.35278 -0.0416,0.35278 0.097,0 0.2745,-0.15875 0.39442,-0.35278 z m 2.55764,-0.0722 c -0.0485,-0.23372 0.0705,-0.43778 0.26458,-0.45347 0.19403,-0.0157 0.71251,-0.2283 1.15219,-0.47245 l 0.7994,-0.44391 0.35654,0.80919 0.35653,0.80919 -0.17967,-1.15996 -0.17966,-1.15995 0.55261,-0.21206 0.55261,-0.21205 -0.45154,-0.27907 -0.45155,-0.27907 -0.62843,0.33632 -0.62843,0.33633 0.23216,-0.60501 0.23217,-0.605 -1.66715,1.19725 c -0.91693,0.65849 -1.85075,1.44301 -2.07517,1.74337 l -0.40803,0.54612 0.49452,-0.44097 c 0.68714,-0.61275 0.94725,-0.55348 1.16117,0.26458 0.19557,0.74784 0.66522,1.00368 0.51515,0.28062 z m 2.17701,-0.74241 -0.0279,-0.42015 -0.17867,0.44317 -0.17867,0.44317 -0.37715,-0.2331 -0.37716,-0.23309 0.25527,0.41304 c 0.30017,0.48567 0.92447,0.19405 0.88423,-0.41304 z m 4.49637,0.2266 c -0.12935,-0.12935 -0.23519,-0.0235 -0.23519,0.23519 0,0.2587 0.10584,0.36454 0.23519,0.23518 0.12935,-0.12935 0.12935,-0.34101 0,-0.47037 z m -15.33504,-0.792 c -0.17412,-0.11414 -0.40722,-0.44566 -0.51801,-0.7367 l -0.20144,-0.52917 -0.0279,1.18973 -0.0279,1.18972 0.54587,-0.45303 0.54586,-0.45302 z m 14.74707,0.8508 c 0,-0.097 -0.0794,-0.17639 -0.17638,-0.17639 -0.097,0 -0.17639,0.0794 -0.17639,0.17639 0,0.097 0.0794,0.17639 0.17639,0.17639 0.097,0 0.17638,-0.0794 0.17638,-0.17639 z m -1.05833,-0.70555 c 0,-0.097 -0.0794,-0.17639 -0.17639,-0.17639 -0.097,0 -0.17639,0.0794 -0.17639,0.17639 0,0.097 0.0794,0.17638 0.17639,0.17638 0.097,0 0.17639,-0.0794 0.17639,-0.17638 z m 46.0963,-0.76436 c -0.12935,-0.12935 -0.34102,-0.12935 -0.47037,0 -0.12935,0.12936 -0.0235,0.23519 0.23518,0.23519 0.25871,0 0.36454,-0.10583 0.23519,-0.23519 z m -43.62685,-0.25623 c 0,-0.0763 -0.23813,-0.23003 -0.52917,-0.34171 l -0.52917,-0.20306 v 0.3417 c 0,0.18794 0.23813,0.34171 0.52917,0.34171 0.29104,0 0.52917,-0.0624 0.52917,-0.13864 z m 0.70555,-0.0378 c 0,-0.097 -0.0794,-0.17639 -0.17639,-0.17639 -0.097,0 -0.17639,0.0794 -0.17639,0.17639 0,0.097 0.0794,0.17639 0.17639,0.17639 0.097,0 0.17639,-0.0794 0.17639,-0.17639 z m -3.07113,-1.17053 -0.4194,-0.2592 0.32875,-0.51986 c 0.48967,-0.77431 0.40723,-1.19158 -0.14489,-0.73335 -0.26645,0.22113 -0.71303,0.31435 -0.9924,0.20714 l -0.50795,-0.19491 -0.59656,0.6592 -0.59657,0.6592 0.44244,0.0381 c 1.16626,0.10049 1.82826,0.35638 1.9623,0.75852 l 0.14701,0.44102 0.39833,-0.39834 0.39834,-0.39833 z m -9.80526,-0.5682 1.41111,-1.19907 -1.23472,0.0578 -1.23472,0.0578 -0.12376,0.88194 c -0.0681,0.48507 -0.30619,0.99858 -0.52917,1.14113 l -0.4054,0.25918 0.35277,1.5e-4 c 0.19403,9e-5 0.98778,-0.53942 1.76389,-1.19891 z m 58.03195,0.6804 c 0,-0.097 -0.0794,-0.17639 -0.17639,-0.17639 -0.097,0 -0.17639,0.0794 -0.17639,0.17639 0,0.097 0.0794,0.17639 0.17639,0.17639 0.097,0 0.17639,-0.0794 0.17639,-0.17639 z m -6.91622,-0.58912 -0.25508,-0.41273 0.58704,0.22527 0.58703,0.22527 v -0.5181 -0.51809 h 0.72638 0.72638 l -0.18615,-0.30119 c -0.20297,-0.32841 1.27665,-1.10992 2.10138,-1.10992 0.28191,0 0.51257,-0.15875 0.51257,-0.35278 0,-0.19403 0.33448,-0.35278 0.7433,-0.35278 h 0.7433 l -0.19617,-0.5112 -0.19616,-0.5112 0.59939,0.21491 0.5994,0.21492 -0.83327,-0.91504 c -0.45829,-0.50327 -1.76649,-1.56966 -2.9071,-2.36975 l -2.07383,-1.45471 0.23432,0.61061 0.23431,0.61062 -0.55592,-0.21333 c -0.30576,-0.11733 -0.65541,-0.11384 -0.77701,0.008 -0.1216,0.1216 -0.46691,0.25717 -0.76735,0.30127 l -0.54626,0.0802 0.20769,-0.54124 0.20769,-0.54123 -0.55148,0.21162 -0.55149,0.21163 0.1969,-0.31861 c 0.1083,-0.17523 -0.003,-0.39945 -0.24626,-0.49827 l -0.44317,-0.17966 0.48864,-0.34171 0.48863,-0.34172 -0.78343,-0.41928 c -0.43089,-0.2306 -0.70406,-0.49865 -0.60704,-0.59567 0.097,-0.097 0.52664,0.0111 0.95473,0.24017 l 0.77834,0.41656 -0.24443,-0.39549 c -0.13443,-0.21752 -1.37208,-1.24871 -2.75033,-2.291525 l -2.50591,-1.896032 -0.49243,0.492437 c -0.66953,0.669525 -1.14302,0.618968 -1.16996,-0.124925 l -0.0224,-0.617361 -0.3009,0.744679 c -0.31552,0.780874 -1.27294,1.327059 -1.77851,1.0146 -0.16311,-0.100808 -0.39627,-0.02195 -0.51815,0.175244 l -0.22158,0.358533 0.99096,0.04804 0.99096,0.04804 -0.82382,0.15683 c -0.97887,0.18634 -2.52757,1.45735 -2.52757,2.07437 0,0.23988 -0.17329,0.49391 -0.38509,0.56451 -0.2118,0.0706 0.60553,0.90663 1.81628,1.85786 l 2.20137,1.72949 1.03453,-0.59374 c 1.40258,-0.80497 2.32127,-0.74627 3.13074,0.20002 l 0.67898,0.79375 -0.0933,-0.48507 c -0.0513,-0.26679 0.0927,-0.55367 0.31995,-0.63751 l 0.41321,-0.15244 -0.20981,0.8139 -0.2098,0.81389 0.59842,-0.49087 0.59842,-0.49087 -0.22221,0.57907 c -0.12222,0.31848 -0.37334,0.57906 -0.55806,0.57906 h -0.33586 l 0.25237,0.40835 0.25238,0.40835 -0.77522,-0.20272 -0.77521,-0.20273 0.22868,0.7205 0.22867,0.7205 -0.39057,-0.24139 -0.39057,-0.24139 v 0.33896 c 0,0.37497 4.18414,3.58324 4.67316,3.58324 h 0.30737 z m 3.74122,-2.93866 c 0,-0.097 0.0794,-0.17639 0.17639,-0.17639 0.097,0 0.17638,0.0794 0.17638,0.17639 0,0.097 -0.0794,0.17639 -0.17638,0.17639 -0.097,0 -0.17639,-0.0794 -0.17639,-0.17639 z m -5.99723,-3.52778 c 0,-0.097 0.0794,-0.17639 0.17639,-0.17639 0.097,0 0.17639,0.0794 0.17639,0.17639 0,0.097 -0.0794,0.17639 -0.17639,0.17639 -0.097,0 -0.17639,-0.0794 -0.17639,-0.17639 z m 1.41112,0 c 0,-0.097 0.0794,-0.17639 0.17638,-0.17639 0.097,0 0.17639,0.0794 0.17639,0.17639 0,0.097 -0.0794,0.17639 -0.17639,0.17639 -0.097,0 -0.17638,-0.0794 -0.17638,-0.17639 z m -4.15709,-0.82735 -0.45292,-0.28739 0.22608,-0.58916 c 0.12434,-0.32403 0.42738,-0.58915 0.67341,-0.58915 h 0.44732 v 0.88194 c 0,0.93648 -0.16657,1.04526 -0.89389,0.58376 z m 2.3932,-0.58376 c 0,-0.097 0.0794,-0.17639 0.17639,-0.17639 0.097,0 0.17638,0.0794 0.17638,0.17639 0,0.097 -0.0794,0.17639 -0.17638,0.17639 -0.097,0 -0.17639,-0.0794 -0.17639,-0.17639 z m -1.05834,-0.70555 c 0,-0.097 0.0794,-0.17639 0.17639,-0.17639 0.097,0 0.17639,0.0794 0.17639,0.17639 0,0.097 -0.0794,0.17639 -0.17639,0.17639 -0.097,0 -0.17639,-0.0794 -0.17639,-0.17639 z m -0.35277,-0.70556 c 0,-0.097 0.0794,-0.17639 0.17638,-0.17639 0.097,0 0.17639,0.0794 0.17639,0.17639 0,0.097 -0.0794,0.17639 -0.17639,0.17639 -0.097,0 -0.17638,-0.0794 -0.17638,-0.17639 z m -4.58612,-3.174999 c 0,-0.09701 0.0794,-0.176389 0.17639,-0.176389 0.097,0 0.17639,0.07937 0.17639,0.176389 0,0.09701 -0.0794,0.176389 -0.17639,0.176389 -0.097,0 -0.17639,-0.07937 -0.17639,-0.176389 z m -20.84556,11.104299 c 1.81792,-1.43699 2.15467,-1.9457 1.35459,-2.04635 -1.70488,-0.21448 -2.08906,-0.36027 -2.54794,-0.96691 -0.28403,-0.37549 -0.52207,-0.52396 -0.52896,-0.32993 -0.007,0.19403 -0.36112,-0.20285 -0.78717,-0.88194 -0.42605,-0.6791 -0.73619,-1.37407 -0.68921,-1.54438 l 0.0854,-0.30966 -0.74845,0.19572 -0.74845,0.19573 0.19805,-0.51611 0.19805,-0.5161 -1.4931,1.05968 c -0.8212,0.58282 -2.04872,1.55546 -2.72782,2.16142 l -1.23472,1.10174 0.59939,-0.1905 0.5994,-0.1905 -0.21192,0.55224 -0.21191,0.55224 0.75905,-0.40623 0.75904,-0.40623 0.74162,0.39691 c 0.40789,0.21829 1.02903,0.32174 1.3803,0.22988 l 0.63868,-0.16702 -0.15247,0.84086 -0.15248,0.84086 0.62426,0.0418 c 0.34334,0.023 0.74332,0.023 0.88884,0 0.14552,-0.023 0.26459,0.13396 0.26459,0.34874 v 0.39053 l -0.52917,-0.20307 c -0.87872,-0.33719 -0.59465,0.0695 0.44097,0.63135 1.30955,0.71045 1.2025,0.73909 3.23152,-0.86475 z M 190.1868,109.45 c 0,-0.097 0.0794,-0.17639 0.17639,-0.17639 0.097,0 0.17639,0.0794 0.17639,0.17639 0,0.097 -0.0794,0.17639 -0.17639,0.17639 -0.097,0 -0.17639,-0.0794 -0.17639,-0.17639 z m -0.35277,-1.41111 c 0,-0.097 0.0794,-0.17639 0.17638,-0.17639 0.097,0 0.17639,0.0794 0.17639,0.17639 0,0.097 -0.0794,0.17639 -0.17639,0.17639 -0.097,0 -0.17638,-0.0794 -0.17638,-0.17639 z m -3.76297,-0.41158 c 0.12935,-0.12935 0.34102,-0.12935 0.47037,0 0.12936,0.12936 0.0235,0.23519 -0.23518,0.23519 -0.25871,0 -0.36454,-0.10583 -0.23519,-0.23519 z m 0.94074,0.0588 c 0,-0.097 0.0794,-0.17639 0.17639,-0.17639 0.097,0 0.17639,0.0794 0.17639,0.17639 0,0.097 -0.0794,0.17639 -0.17639,0.17639 -0.097,0 -0.17639,-0.0794 -0.17639,-0.17639 z m 2.11667,0 c 0,-0.097 0.0794,-0.17639 0.17639,-0.17639 0.097,0 0.17639,0.0794 0.17639,0.17639 0,0.097 -0.0794,0.17639 -0.17639,0.17639 -0.097,0 -0.17639,-0.0794 -0.17639,-0.17639 z m -3.88056,-0.35278 c 0,-0.097 0.0794,-0.17639 0.17639,-0.17639 0.097,0 0.17639,0.0794 0.17639,0.17639 0,0.097 -0.0794,0.17639 -0.17639,0.17639 -0.097,0 -0.17639,-0.0794 -0.17639,-0.17639 z m 3.88056,-0.35278 c 0,-0.097 0.0794,-0.17638 0.17639,-0.17638 0.097,0 0.17639,0.0794 0.17639,0.17638 0,0.097 -0.0794,0.17639 -0.17639,0.17639 -0.097,0 -0.17639,-0.0794 -0.17639,-0.17639 z m 35.27778,4.93889 c 0,-0.097 -0.0794,-0.17639 -0.17639,-0.17639 -0.097,0 -0.17639,0.0794 -0.17639,0.17639 0,0.097 0.0794,0.17639 0.17639,0.17639 0.097,0 0.17639,-0.0794 0.17639,-0.17639 z m 6.35,-0.70555 c 0,-0.097 -0.0794,-0.17639 -0.17639,-0.17639 -0.097,0 -0.17639,0.0794 -0.17639,0.17639 0,0.097 0.0794,0.17639 0.17639,0.17639 0.097,0 0.17639,-0.0794 0.17639,-0.17639 z m -63.95659,-2.38125 c -0.0841,-0.43657 -0.15288,-0.0794 -0.15288,0.79375 0,0.87312 0.0688,1.23031 0.15288,0.79375 0.0841,-0.43657 0.0841,-1.15094 0,-1.5875 z m 13.68575,1.85208 c 0.11992,-0.19403 0.0499,-0.35278 -0.15556,-0.35278 -0.20548,0 -0.3736,0.15875 -0.3736,0.35278 0,0.19403 0.07,0.35278 0.15557,0.35278 0.0856,0 0.25368,-0.15875 0.37359,-0.35278 z m 48.15417,0.17639 c 0,-0.097 -0.0794,-0.17639 -0.17639,-0.17639 -0.097,0 -0.17639,0.0794 -0.17639,0.17639 0,0.097 0.0794,0.17639 0.17639,0.17639 0.097,0 0.17639,-0.0794 0.17639,-0.17639 z m -41.03981,-0.76435 c -0.12936,-0.12935 -0.34102,-0.12935 -0.47037,0 -0.12936,0.12935 -0.0235,0.23518 0.23518,0.23518 0.25871,0 0.36454,-0.10583 0.23519,-0.23518 z m 40.51064,-0.11759 c 0.11992,-0.19403 0.13866,-0.35278 0.0416,-0.35278 -0.097,0 -0.2745,0.15875 -0.39441,0.35278 -0.11992,0.19402 -0.13866,0.35277 -0.0416,0.35277 0.097,0 0.2745,-0.15875 0.39441,-0.35277 z m 1.23473,-0.17639 c 0,-0.097 -0.0794,-0.17639 -0.17639,-0.17639 -0.097,0 -0.17639,0.0794 -0.17639,0.17639 0,0.097 0.0794,0.17639 0.17639,0.17639 0.097,0 0.17639,-0.0794 0.17639,-0.17639 z m -54.39834,-0.59973 0.42334,-0.42333 -0.0303,-2.48708 -0.0303,-2.48709 -0.30208,1.00805 c -0.16615,0.55442 -0.57398,1.30849 -0.9063,1.67569 l -0.60421,0.66765 h 0.40745 c 0.2241,0 0.40745,0.16812 0.40745,0.3736 0,0.20548 -0.15875,0.27549 -0.35277,0.15557 -0.54768,-0.33848 -0.41615,0.0626 0.2336,0.71237 l 0.58638,0.58638 -0.49819,0.31536 -0.49818,0.31536 0.37041,0.005 c 0.20373,0.003 0.56092,-0.1851 0.79375,-0.41794 z m 56.16223,-0.10583 c 0,-0.097 -0.0794,-0.17639 -0.17639,-0.17639 -0.097,0 -0.17639,0.0794 -0.17639,0.17639 0,0.097 0.0794,0.17639 0.17639,0.17639 0.097,0 0.17639,-0.0794 0.17639,-0.17639 z m -12.8176,-2.17546 c -0.12935,-0.12935 -0.34102,-0.12935 -0.47037,0 -0.12935,0.12935 -0.0235,0.23518 0.23519,0.23518 0.2587,0 0.36454,-0.10583 0.23518,-0.23518 z m -26.69352,-0.29398 c 0,-0.097 -0.0794,-0.17639 -0.17638,-0.17639 -0.097,0 -0.17639,0.0794 -0.17639,0.17639 0,0.097 0.0794,0.17639 0.17639,0.17639 0.097,0 0.17638,-0.0794 0.17638,-0.17639 z m 25.98797,-0.41158 c -0.12935,-0.12935 -0.34102,-0.12935 -0.47037,0 -0.12935,0.12935 -0.0235,0.23519 0.23518,0.23519 0.25871,0 0.36454,-0.10584 0.23519,-0.23519 z m -16.4538,-1.78039 c 1.46821,-1.09612 2.54834,-2.3971 1.40195,-1.68859 l -0.35278,0.21803 v -0.49608 c 0,-0.27284 0.35719,-0.66834 0.79375,-0.87889 l 0.79375,-0.38281 -0.79375,-0.0239 c -0.43656,-0.0131 -0.79375,0.13984 -0.79375,0.33995 v 0.36383 l -1.23472,-0.0832 -1.23473,-0.0832 v -0.45706 c 0,-0.25139 -0.15376,-0.45707 -0.3417,-0.45707 h -0.34171 l 0.21672,-0.56477 0.21673,-0.564768 -0.48216,-0.297993 c -0.26519,-0.163895 -0.37265,-0.407503 -0.23881,-0.541349 0.13385,-0.133846 0.6396,0.01627 1.1239,0.333596 0.4843,0.317325 1.08457,0.564421 1.33393,0.549103 l 0.45338,-0.02785 -0.44317,-0.178669 c -0.24374,-0.09827 -0.35344,-0.32386 -0.24376,-0.501316 0.10967,-0.177456 -0.0481,-0.34249 -0.35058,-0.366744 -0.30249,-0.02425 -0.70874,-0.08379 -0.90277,-0.132292 -0.19402,-0.04851 -0.50654,-0.108038 -0.69448,-0.132291 l -0.34171,-0.0441 0.21881,-0.570206 0.21881,-0.570207 -0.73585,0.393818 c -0.93988,0.503007 -1.24218,0.49983 -0.92725,-0.0097 l 0.24942,-0.403562 -1.0616,0.627103 c -0.58388,0.344907 -1.67894,1.17428 -2.43346,1.843052 l -1.37185,1.215945 0.59939,-0.1868 0.5994,-0.1868 -0.17306,0.45097 -0.17305,0.45098 1.50558,0.45108 c 0.82808,0.2481 1.76359,0.74857 2.07892,1.11215 0.31534,0.36358 0.66041,0.57398 0.76683,0.46756 0.10642,-0.10642 0.16967,0.0911 0.14057,0.43888 l -0.0529,0.63237 0.44098,0.0526 c 0.24253,0.0289 0.63941,0.0775 0.88194,0.10792 l 0.44097,0.0553 -0.68478,0.51794 -0.68479,0.51795 h 0.42936 c 0.23616,0 1.219,-0.58951 2.1841,-1.31002 z m -1.42028,-0.98303 c 0,-0.097 0.0794,-0.17639 0.17639,-0.17639 0.097,0 0.17639,0.0794 0.17639,0.17639 0,0.097 -0.0794,0.17639 -0.17639,0.17639 -0.097,0 -0.17639,-0.0794 -0.17639,-0.17639 z m -0.35277,-0.70556 c 0,-0.097 0.0794,-0.17639 0.17638,-0.17639 0.097,0 0.17639,0.0794 0.17639,0.17639 0,0.097 -0.0794,0.17639 -0.17639,0.17639 -0.097,0 -0.17638,-0.0794 -0.17638,-0.17639 z m -0.35278,-1.05833 c 0,-0.097 0.0794,-0.17639 0.17639,-0.17639 0.097,0 0.17639,0.0794 0.17639,0.17639 0,0.097 -0.0794,0.17639 -0.17639,0.17639 -0.097,0 -0.17639,-0.0794 -0.17639,-0.17639 z m -32.01756,0.0882 c 0.0692,-0.7276 -9.9e-4,-1.32291 -0.15606,-1.32291 -0.15506,0 -0.26352,0.83343 -0.24101,1.85208 0.0425,1.92438 0.18118,1.73959 0.39707,-0.52917 z m 3.79534,2.02847 c 0,-0.097 -0.0794,-0.17638 -0.17639,-0.17638 -0.097,0 -0.17639,0.0794 -0.17639,0.17638 0,0.097 0.0794,0.17639 0.17639,0.17639 0.097,0 0.17639,-0.0794 0.17639,-0.17639 z m 4.46345,-3.59164 c -0.0988,-0.0988 -0.70063,-0.0652 -1.33735,0.0746 l -1.15769,0.25427 1.22066,0.58121 1.22065,0.58121 0.1167,-0.65581 c 0.0642,-0.3607 0.0359,-0.73667 -0.063,-0.83549 z m 31.87266,0.16501 c 0,-0.14047 0.21865,-0.17149 0.48588,-0.0689 0.26724,0.10255 1.0213,-0.13996 1.6757,-0.538917 0.65439,-0.398954 0.982,-0.725965 0.72801,-0.72669 l -0.46179,-0.0013 0.23289,-0.376828 c 0.12809,-0.207255 0.44336,-0.296067 0.70059,-0.197358 0.25723,0.09871 0.63667,-0.02414 0.8432,-0.272992 l 0.37551,-0.452462 -0.26153,-0.261523 -0.26152,-0.261522 0.35278,0.08451 c 0.19403,0.04648 0.73138,-0.07078 1.19411,-0.260573 l 0.84133,-0.345081 -1.19411,-0.993577 c -0.65676,-0.546467 -0.79723,-0.734241 -0.31216,-0.417276 0.48507,0.316965 1.35819,0.822872 1.94027,1.124237 l 1.05834,0.547937 -0.54582,-0.45805 c -4.32041,-3.625671 -7.9587,-6.133322 -6.47622,-4.463662 l 0.67204,0.756888 -0.70556,-0.326758 c -0.38805,-0.179716 -1.1818,-0.303588 -1.76389,-0.27527 -0.58208,0.02832 -1.1647,-0.114387 -1.29471,-0.317123 l -0.23638,-0.368611 -1.17473,0.922525 c -0.6461,0.507389 -1.65098,1.338052 -2.23307,1.845919 l -1.05833,0.923395 0.78871,-0.381143 0.78872,-0.381142 -0.34271,0.901376 -0.3427,0.901377 0.67733,-0.362494 c 0.93426,-0.500003 1.09059,-0.45696 0.82778,0.227918 l -0.22656,0.590412 0.63492,-0.243642 0.63492,-0.243642 -0.58435,0.891835 -0.58436,0.891835 0.89262,0.962651 c 1.05195,1.134471 1.11585,1.488951 0.27526,1.526881 l -0.61736,0.0279 0.42142,0.17141 c 0.23178,0.0943 0.74771,-0.003 1.14652,-0.21665 l 0.72512,-0.38807 v 0.29464 c 0,0.16205 -0.17049,0.46512 -0.37886,0.67349 l -0.37886,0.37886 1.2608,-0.39462 c 0.69345,-0.21705 1.26081,-0.50955 1.26081,-0.65001 z m -2.11667,-1.512255 c 0,-0.09701 0.0794,-0.176389 0.17639,-0.176389 0.097,0 0.17639,0.07937 0.17639,0.176389 0,0.09701 -0.0794,0.176389 -0.17639,0.176389 -0.097,0 -0.17639,-0.07937 -0.17639,-0.176389 z m 2.11667,0 c 0,-0.09701 0.0794,-0.176389 0.17639,-0.176389 0.097,0 0.17638,0.07937 0.17638,0.176389 0,0.09701 -0.0794,0.176389 -0.17638,0.176389 -0.097,0 -0.17639,-0.07937 -0.17639,-0.176389 z m -3.52778,-0.705555 c 0,-0.09701 0.0794,-0.176389 0.17639,-0.176389 0.097,0 0.17639,0.07938 0.17639,0.176389 0,0.09701 -0.0794,0.176388 -0.17639,0.176388 -0.097,0 -0.17639,-0.07937 -0.17639,-0.176388 z m 5.99722,-1.058334 c 0,-0.09701 0.0794,-0.176389 0.17639,-0.176389 0.097,0 0.17639,0.07937 0.17639,0.176389 0,0.09701 -0.0794,0.176389 -0.17639,0.176389 -0.097,0 -0.17639,-0.07938 -0.17639,-0.176389 z m -4.11574,-3.233796 c 0.12935,-0.129352 0.34102,-0.129352 0.47037,0 0.12935,0.129352 0.0235,0.235185 -0.23518,0.235185 -0.25871,0 -0.36454,-0.105833 -0.23519,-0.235185 z m 1.22737,-0.0058 c 0.25466,-0.101907 0.55894,-0.08938 0.67616,0.02785 0.11723,0.117225 -0.0911,0.200603 -0.46302,0.185285 l -0.67616,-0.02785 z m 3.24115,7.47293 c 0,-0.097 -0.0794,-0.17639 -0.17639,-0.17639 -0.097,0 -0.17639,0.0794 -0.17639,0.17639 0,0.097 0.0794,0.17639 0.17639,0.17639 0.097,0 0.17639,-0.0794 0.17639,-0.17639 z m -7.76111,-0.70556 c 0,-0.097 -0.0794,-0.17638 -0.17639,-0.17638 -0.097,0 -0.17639,0.0794 -0.17639,0.17638 0,0.097 0.0794,0.17639 0.17639,0.17639 0.097,0 0.17639,-0.0794 0.17639,-0.17639 z m 0.23518,-1.117124 c -0.12935,-0.129351 -0.34102,-0.129351 -0.47037,0 -0.12935,0.129352 -0.0235,0.235186 0.23519,0.235186 0.2587,0 0.36454,-0.105834 0.23518,-0.235186 z m -0.58796,-0.646759 c 0,-0.09701 -0.0794,-0.176389 -0.17639,-0.176389 -0.097,0 -0.17639,0.07937 -0.17639,0.176389 0,0.09701 0.0794,0.176389 0.17639,0.176389 0.097,0 0.17639,-0.07937 0.17639,-0.176389 z m 11.99444,-0.705555 c 0,-0.09701 -0.0794,-0.176389 -0.17638,-0.176389 -0.097,0 -0.17639,0.07938 -0.17639,0.176389 0,0.09701 0.0794,0.176388 0.17639,0.176388 0.097,0 0.17638,-0.07937 0.17638,-0.176388 z m -13.17014,-1.469686 c -0.27484,-0.274835 -1.2819,0.321495 -1.08392,0.641837 l 0.20577,0.332943 0.50628,-0.42018 c 0.27846,-0.231098 0.4458,-0.480669 0.37187,-0.5546 z m 12.69977,0.705334 c -0.12935,-0.129352 -0.34101,-0.129352 -0.47037,0 -0.12935,0.129352 -0.0235,0.235185 0.23519,0.235185 0.2587,0 0.36454,-0.105833 0.23518,-0.235185 z m -11.17129,-0.293982 c 0,-0.09701 -0.0794,-0.176389 -0.17639,-0.176389 -0.097,0 -0.17639,0.07937 -0.17639,0.176389 0,0.09701 0.0794,0.176389 0.17639,0.176389 0.097,0 0.17639,-0.07938 0.17639,-0.176389 z m 4.58611,-6.702778 c 0,-0.09701 -0.0794,-0.176388 -0.17639,-0.176388 -0.097,0 -0.17639,0.07938 -0.17639,0.176388 0,0.09701 0.0794,0.176389 0.17639,0.176389 0.097,0 0.17639,-0.07937 0.17639,-0.176389 z"
         id="path130" /><path
         style="fill:#8d6f3a"
         d="m 158.12496,199.81044 -0.39823,-0.47984 0.0905,-26.41156 0.0905,-26.41155 7.23194,-5.58425 c 25.18031,-19.44335 40.81254,-31.29685 41.27384,-31.29685 0.43023,0 9.98007,7.21319 32.10394,24.24878 l 16.40417,12.63136 0.0905,26.41203 0.0905,26.41204 -0.39823,0.47984 -0.39823,0.47984 H 206.41458 158.5232 Z m 33.47295,-23.7944 v -20.74647 l 0.44098,-0.58792 0.44097,-0.58793 13.91728,-0.039 13.91728,-0.039 0.45841,0.62691 0.45842,0.62692 v 20.74647 20.74646 h 15.16944 15.16945 V 172.64115 148.51979 L 239.4875,139.2297 c -6.64545,-5.10955 -16.80422,-12.90528 -22.57504,-17.32384 l -10.49239,-8.03375 -7.67566,5.88644 c -4.22162,3.23754 -12.35879,9.47546 -18.08261,13.86205 -5.72382,4.38658 -12.431,9.53853 -14.90486,11.44877 l -4.49791,3.47316 v 24.10998 24.10999 h 15.16944 15.16944 z m 25.75278,1.16729 v -19.57916 h -10.93611 -10.93611 v 19.57916 19.57917 h 10.93611 10.93611 z m -7.04989,1.33819 -0.7511,-0.95487 0.21564,-0.89722 c 0.27658,-1.1508 1.11048,-1.77915 2.36111,-1.77915 h 0.99091 l 0.70555,0.70555 c 0.90143,0.90143 0.89379,1.78222 -0.0256,2.95104 l -0.73116,0.92952 h -1.00712 -1.00713 z m -59.7811,-34.8493 c -2.66217,-0.94836 -4.43467,-2.86749 -5.16978,-5.59749 l -0.38538,-1.4312 0.22454,-1.40424 c 0.12351,-0.77233 0.57508,-2.02942 1.0035,-2.79354 l 0.77895,-1.38931 7.8493,-5.99726 7.84931,-5.99726 V 108.37213 97.68234 l 0.55436,-0.554365 0.55437,-0.554365 h 7.36231 7.36232 l 0.2854,0.440972 c 0.15697,0.242535 0.36478,2.387879 0.46179,4.767428 l 0.17639,4.32646 13.05278,-10.052105 13.05278,-10.052106 0.88194,-4.8e-5 0.88195,-4.8e-5 15.90524,12.252084 c 8.74789,6.738643 18.66976,14.389453 22.04861,17.001793 3.37885,2.61234 9.08024,6.99979 12.66976,9.7499 9.07126,6.94996 9.35723,7.26294 9.7625,10.68478 l 0.19977,1.68674 -0.76504,1.72948 c -0.93369,2.11077 -1.88047,3.16248 -3.72918,4.14246 l -1.41111,0.74802 -2.30352,-0.007 -2.30353,-0.007 -1.47152,-0.86306 c -0.80934,-0.47468 -3.90025,-2.75707 -6.8687,-5.07196 -5.75477,-4.48777 -13.91058,-10.77108 -31.50273,-24.26999 l -10.93611,-8.39156 -0.4253,0.16189 c -0.39461,0.15021 -2.97573,2.11591 -21.09414,16.06464 -3.68653,2.83813 -10.90966,8.39522 -16.05139,12.3491 -5.14174,3.95387 -9.9484,7.65302 -10.68147,8.22033 -2.38388,1.84483 -5.27401,2.39498 -7.81897,1.48838 z m 4.4559,-3.74257 c 0.39915,-0.21362 11.7311,-8.85644 25.1821,-19.20626 13.45101,-10.34982 24.86149,-19.0833 25.35663,-19.40772 l 0.90025,-0.58987 0.90058,0.59008 c 0.49531,0.32454 2.67812,1.98006 4.85069,3.67893 2.17257,1.69887 6.33137,4.91332 9.24179,7.14322 12.50783,9.58326 28.81312,22.12598 31.72087,24.40104 1.73023,1.35375 3.68198,2.77768 4.33723,3.16428 l 1.19135,0.70292 1.64855,-0.18581 1.64855,-0.18582 0.98159,-1.09858 0.98158,-1.09858 v -1.54285 -1.54286 L 263.3,134.02259 c -0.54953,-0.64906 -7.3006,-5.91032 -25.89391,-20.1797 -14.187,-10.88777 -21.62437,-16.615614 -25.98927,-20.015481 l -4.69915,-3.660217 -0.49838,0.191244 c -0.2741,0.105184 -5.70011,4.199111 -12.05779,9.097616 -6.35768,4.898508 -15.60754,12.017118 -20.55525,15.819128 -4.94771,3.80202 -12.42769,9.55397 -16.62219,12.7821 l -7.62635,5.86934 -0.21814,0.81447 c -1.00471,3.75139 2.57489,6.93387 5.83603,5.18856 z m 16.45429,-27.83382 3.93871,-2.99861 7.7e-4,-4.49792 7.7e-4,-4.49791 h -4.40973 -4.40972 v 7.77864 7.77864 l 0.47025,-0.28211 c 0.25864,-0.15517 2.24267,-1.63149 4.40895,-3.28073 z"
         id="path129" /><path
         style="fill:#5e4b39"
         d="m 158.12496,199.81044 -0.39823,-0.47984 0.0905,-26.40817 0.0905,-26.40817 7.9375,-6.11078 c 15.48272,-11.91957 26.5927,-20.43691 33.34934,-25.56691 l 6.84458,-5.19677 0.62873,0.21541 c 0.75715,0.2594 6.54193,4.59758 22.46919,16.85031 6.57948,5.06155 15.0726,11.58807 18.87361,14.50338 l 6.91094,5.30056 0.0905,26.41057 0.0905,26.41057 -0.39823,0.47984 -0.39823,0.47984 H 206.41458 158.5232 Z m 33.47295,-23.60695 v -20.559 l 0.54918,-0.78405 0.54917,-0.78405 h 13.71832 13.71833 l 0.54917,0.78405 0.54917,0.78405 v 20.559 20.55901 h 15.16944 15.16945 l -0.0144,-24.25347 -0.0144,-24.25348 L 240.23,139.6125 c -6.22123,-4.75368 -16.3339,-12.49274 -22.4726,-17.19792 -6.13869,-4.70517 -11.24203,-8.55486 -11.34076,-8.55486 -0.16077,0 -36.97568,28.15416 -42.79727,32.72917 l -2.36038,1.85496 v 24.15932 24.15933 h 15.16944 15.16944 z m 26.10556,0.97984 v -19.57916 h -11.28889 -11.28889 v 19.57916 19.57917 h 11.28889 11.28889 z m -6.60403,1.9299 -0.78319,-0.31185 -0.21819,-0.86932 c -0.33727,-1.34381 -0.0616,-2.08678 0.99332,-2.67688 l 0.96765,-0.54129 0.97013,0.54025 0.97014,0.54025 0.10604,1.25383 0.10603,1.25383 -0.45881,0.36761 c -0.7465,0.5981 -1.81599,0.77691 -2.65312,0.44357 z m -59.89458,-35.23136 c -2.46264,-0.63008 -4.12897,-1.9679 -5.31773,-4.26937 l -0.63777,-1.23472 -0.0209,-1.94028 -0.0209,-1.94028 0.8285,-1.68248 0.8285,-1.68247 7.90275,-6.0023 7.90275,-6.00229 V 108.40501 97.68234 l 0.55436,-0.554365 0.55437,-0.554365 h 7.36231 7.36232 l 0.2854,0.440972 c 0.15697,0.242535 0.36478,2.392301 0.46179,4.777258 l 0.17639,4.33629 13.05278,-10.056541 13.05278,-10.056538 0.88976,-0.01239 0.88976,-0.01239 1.2269,0.998398 c 0.6748,0.549119 4.95754,3.855872 9.51719,7.34834 7.74551,5.932671 10.521,8.071241 24.95903,19.231411 3.05593,2.36214 9.15112,7.05023 13.54487,10.41797 8.57602,6.5734 9.58304,7.44858 10.46198,9.09238 l 0.56982,1.06566 v 2.11667 2.11667 l -0.64384,1.23472 c -1.27534,2.44579 -3.21437,3.88351 -5.89215,4.36881 l -1.27389,0.23088 -1.82859,-0.39215 -1.82859,-0.39217 -1.48363,-1.13317 c -1.5521,-1.18549 -41.31158,-31.75162 -45.55304,-35.0201 -2.97575,-2.29312 -2.32903,-2.34941 -6.06854,0.52816 -28.74983,22.12311 -45.99713,35.25155 -46.74176,35.57929 -1.29915,0.5718 -3.82072,0.82025 -5.07306,0.49982 z m 5.36734,-4.91859 c 1.01175,-0.71008 5.933,-4.46071 10.93611,-8.33472 5.0031,-3.87401 11.39842,-8.80301 14.21183,-10.95333 2.8134,-2.15033 8.68715,-6.65905 13.05277,-10.0194 4.36563,-3.36034 8.63824,-6.64666 9.4947,-7.30291 1.84246,-1.41178 2.46265,-1.47162 3.7956,-0.36625 0.54846,0.45482 8.6172,6.68108 17.93054,13.83612 9.31333,7.15505 20.18771,15.51752 24.16528,18.58325 l 7.23194,5.57408 1.32701,0.36005 1.327,0.36006 1.53919,-0.68086 1.53919,-0.68085 0.61293,-1.60495 0.61293,-1.60494 -0.6569,-1.34487 -0.65691,-1.34487 -5.82083,-4.51306 c -3.20146,-2.48218 -9.99984,-7.72093 -15.10751,-11.64167 -11.247,-8.63338 -19.89019,-15.27719 -28.91156,-22.223615 l -6.77566,-5.217231 -10.85055,8.368965 c -10.89285,8.401591 -21.01392,16.176631 -36.42694,27.983301 -4.55965,3.49278 -8.72684,6.83171 -9.26042,7.41984 l -0.97014,1.06932 v 1.55487 1.55487 l 0.9112,1.08289 0.91119,1.08289 1.11728,0.31474 c 1.58908,0.44765 2.62341,0.16025 4.72073,-1.31172 z m 18.35696,-29.45762 0.79375,-0.70782 v -4.35846 -4.35847 l -4.66605,0.0984 -4.66605,0.0984 0.0681,7.76111 c 0.0375,4.26861 0.0734,7.8112 0.0799,7.87243 0.0142,0.13386 7.26212,-5.39964 8.39028,-6.40566 z"
         id="path128" /><path
         style="fill:#171932"
         d="m 158.28561,199.73591 -0.55436,-0.55436 v -26.19481 -26.19481 l 14.87917,-11.43902 c 8.18355,-6.29146 16.31949,-12.5547 18.07987,-13.9183 1.76037,-1.3636 5.84957,-4.49891 9.08709,-6.96736 l 5.88642,-4.48808 h 0.75406 0.75405 l 5.17759,3.94903 c 2.84767,2.17197 6.84446,5.24125 8.88175,6.82061 4.35571,3.37668 25.46225,19.60792 30.42708,23.39888 l 3.43958,2.62634 v 26.39294 26.39293 l -0.68236,0.36519 -0.68236,0.36519 h -47.44661 -47.4466 z m 33.57732,-23.7873 0.0886,-20.99028 0.59616,-0.44097 0.59617,-0.44097 h 13.2707 13.2707 l 0.59617,0.44097 0.59616,0.44097 0.0886,20.99028 0.0886,20.99028 h 15.34583 15.34584 l 0.0906,-24.23606 0.0906,-24.23605 -9.61562,-7.35306 c -5.28859,-4.04418 -13.42562,-10.29115 -18.08229,-13.88215 -12.0647,-9.30373 -17.47947,-13.37185 -17.79826,-13.37185 -0.28227,0 -6.53989,4.68248 -16.06841,12.02373 -2.91041,2.24233 -9.73666,7.48753 -15.16944,11.656 -5.43278,4.16847 -10.86997,8.35003 -12.08264,9.29237 l -2.20486,1.71334 v 24.04987 c 0,13.22743 0.1075,24.15737 0.23888,24.28876 0.13139,0.13139 7.0767,0.19753 15.43403,0.14699 l 15.19514,-0.0919 z m 25.66415,1.23472 v -19.75555 h -11.1125 -11.1125 l -0.0916,19.40277 c -0.0504,10.67153 -0.0179,19.59559 0.0723,19.83125 l 0.16397,0.42846 11.04017,-0.0757 11.04018,-0.0757 z m -7.00088,1.29514 c -1.01779,-1.12464 -0.71614,-2.42868 0.73908,-3.19502 l 0.79375,-0.418 0.79375,0.418 c 2.12198,1.11748 1.51575,3.84016 -0.85505,3.84016 h -0.88769 z m -60.91556,-35.32041 c -1.66215,-0.87911 -3.11112,-2.37309 -3.72384,-3.83953 l -0.50277,-1.20331 v -1.91125 -1.91125 l 0.70661,-1.38507 0.70661,-1.38508 2.04513,-1.68767 c 1.12483,-0.92823 4.7752,-3.75143 8.11195,-6.27379 l 6.06682,-4.58611 8.8e-4,-10.77736 8.8e-4,-10.777364 0.42334,-0.423333 0.42333,-0.423333 h 7.09083 7.09084 l 0.42333,0.423333 0.42333,0.423333 v 4.339164 4.33917 h 0.34307 c 0.18868,0 2.76837,-1.86075 5.73264,-4.13501 2.96426,-2.274248 8.86627,-6.798623 13.11556,-10.054162 4.24929,-3.255539 7.99126,-5.919162 8.31549,-5.919162 0.68701,0 5.76948,3.841072 34.31497,25.933524 2.37826,1.84063 7.41973,5.72135 11.20327,8.62383 3.78355,2.90247 8.46426,6.51537 10.40159,8.02867 l 3.52242,2.75144 0.82811,1.50122 0.82812,1.50122 0.004,1.84741 0.004,1.84741 -0.55112,1.28443 c -0.68001,1.58481 -2.24525,3.1864 -3.86547,3.95525 l -1.2247,0.58115 h -1.98649 -1.98648 l -1.23838,-0.51743 c -0.68111,-0.28458 -3.33507,-2.1414 -5.8977,-4.12625 -2.56263,-1.98486 -7.75494,-5.9873 -11.53849,-8.89431 -3.78354,-2.90701 -9.97479,-7.66774 -13.75833,-10.57939 -14.96548,-11.51682 -18.71348,-14.3354 -19.06246,-14.3354 -0.39733,0 -6.18288,4.38653 -32.09032,24.33045 -9.41034,7.24422 -17.62056,13.38529 -18.24492,13.64682 l -1.13519,0.47551 -2.03981,-0.0156 -2.0398,-0.0156 z m 5.38283,-2.9957 c 0.53151,-0.27727 5.66296,-4.12598 11.4032,-8.55269 23.09409,-17.80947 37.79606,-29.06111 39.03389,-29.87321 l 1.00292,-0.65799 1.31347,0.90318 c 0.7224,0.49675 2.90892,2.14222 4.85893,3.6566 1.95001,1.51438 8.69688,6.7099 14.99306,11.54561 6.29617,4.8357 13.82884,10.64023 16.73925,12.89894 7.47928,5.80452 11.03286,8.49917 12.68163,9.61638 l 1.42948,0.96863 1.23473,1.9e-4 1.23472,1.9e-4 1.1294,-0.68863 c 1.93766,-1.18146 2.59559,-3.07062 1.83211,-5.26072 l -0.38987,-1.11839 -7.42677,-5.72523 c -4.08472,-3.14887 -9.82271,-7.55447 -12.7511,-9.79022 -2.92838,-2.23576 -9.2137,-7.06852 -13.96738,-10.73949 -15.21218,-11.747388 -22.35153,-17.192597 -22.73412,-17.339395 -0.31378,-0.120399 -14.49488,10.640335 -43.94088,33.342715 -3.20146,2.46827 -7.52316,5.7951 -9.60378,7.39294 l -3.78294,2.90517 -0.41453,1.38356 -0.41452,1.38357 0.50583,1.32902 0.50583,1.32902 1.18617,0.79936 1.18617,0.79936 1.09435,-0.002 c 0.6019,-0.001 1.52924,-0.22903 2.06075,-0.5063 z m 16.20785,-27.59929 4.54121,-3.41331 -0.098,-4.61238 -0.098,-4.612382 -4.58612,0.02129 -4.58611,0.02129 -0.0948,8.004402 c -0.0522,4.40242 0.0121,8.0044 0.1429,8.0044 0.13075,0 2.28127,-1.53599 4.77893,-3.41332 z"
         id="path127" /></g></g></svg>
