<?xml version="1.0" encoding="UTF-8" standalone="no"?>
<!-- Created with Inkscape (http://www.inkscape.org/) -->

<svg
   width="80.080154mm"
   height="83.373558mm"
   viewBox="0 0 80.080111 83.373561"
   version="1.1"
   id="svg1"
   xml:space="preserve"
   inkscape:version="1.4.3 (0d15f75, 2025-12-25)"
   sodipodi:docname="x.svg"
   xmlns:inkscape="http://www.inkscape.org/namespaces/inkscape"
   xmlns:sodipodi="http://sodipodi.sourceforge.net/DTD/sodipodi-0.dtd"
   xmlns="http://www.w3.org/2000/svg"
   xmlns:svg="http://www.w3.org/2000/svg"><sodipodi:namedview
     id="namedview1"
     pagecolor="#ffffff"
     bordercolor="#000000"
     borderopacity="0.25"
     inkscape:showpageshadow="2"
     inkscape:pageopacity="0.0"
     inkscape:pagecheckerboard="0"
     inkscape:deskcolor="#d1d1d1"
     inkscape:document-units="mm"
     inkscape:zoom="0.71891835"
     inkscape:cx="394.34242"
     inkscape:cy="559.86886"
     inkscape:window-width="1920"
     inkscape:window-height="1009"
     inkscape:window-x="-8"
     inkscape:window-y="-8"
     inkscape:window-maximized="1"
     inkscape:current-layer="layer1" /><defs
     id="defs1" /><g
     inkscape:label="Capa 1"
     inkscape:groupmode="layer"
     id="layer1"
     transform="translate(-0.69443922,-0.47844091)"><path
       style="fill:#000000;stroke-width:0.692322"
       d="m 3.1194951,82.429745 c 0.6042616,-0.782236 1.8615792,-2.437445 2.7940464,-3.67824 0.932467,-1.240795 2.4369053,-3.22705 3.343191,-4.413898 0.9062855,-1.186851 2.2176085,-2.916783 2.9140415,-3.844289 0.696433,-0.927514 3.767725,-4.983785 6.825092,-9.013936 3.057367,-4.030143 6.093828,-8.03828 6.747699,-8.90696 0.65387,-0.868673 2.025197,-2.670087 3.047392,-4.00314 1.139715,-1.486308 1.822243,-2.532201 1.764695,-2.7042 -0.05159,-0.154257 -1.198671,-1.932613 -2.54902,-3.951899 C 17.371207,26.009193 0.69443922,0.82640613 0.69443922,0.67035862 c 0,-0.12336476 4.48223968,-0.19191771 12.54819678,-0.19191771 h 12.548198 l 4.877663,7.40553379 c 2.682714,4.0730433 6.589563,10.0097313 8.681888,13.1926393 2.092319,3.182908 3.855068,5.85182 3.917212,5.930915 0.112257,0.142885 1.454557,-1.566511 14.028018,-17.864453 3.606868,-4.6752803 6.644498,-8.53860633 6.750291,-8.58516886 0.105799,-0.0465625 2.870296,-0.061421 6.143328,-0.0330238 l 5.950967,0.0516414 -3.302774,4.31580786 c -1.816528,2.3736942 -6.03427,7.8873294 -9.372769,12.2525214 -3.338498,4.365192 -7.866151,10.27981 -10.061456,13.143596 -2.195306,2.863785 -4.030387,5.313773 -4.077966,5.444417 -0.08118,0.222937 1.0248,1.943466 9.998582,15.554399 6.373731,9.667309 17.258773,26.191391 20.878498,31.694675 l 0.572275,0.87006 -12.374133,-0.0015 -12.374126,-0.0015 L 53.52449,80.07441 C 43.069186,64.29976 36.744037,54.916467 36.566191,54.916467 c -0.173645,0 -14.33663,18.389754 -20.509643,26.630503 l -1.726664,2.305031 H 8.1753607 2.0208371 Z M 66.374337,75.483727 c 0,-0.07096 -0.298482,-0.578554 -0.66329,-1.127999 C 65.037492,73.341269 55.63136,59.074776 49.272918,49.423623 47.353636,46.510455 44.734818,42.537951 43.453317,40.595834 42.171822,38.653724 38.709204,33.401188 35.758619,28.923537 32.808033,24.445886 29.343412,19.193352 28.05946,17.251239 26.775509,15.309125 24.971561,12.572511 24.050691,11.169873 23.129821,9.7672357 22.289241,8.5547666 22.182738,8.4754975 21.957661,8.3079792 14.890872,8.2705008 14.890872,8.436824 c 0,0.061302 1.661547,2.599293 3.692323,5.639977 2.030776,3.040682 12.094424,18.129597 22.363664,33.530919 l 18.671342,28.002408 3.378068,0.0015 c 1.857933,7.12e-4 3.378068,-0.05679 3.378068,-0.127706 z"
       id="path1" /></g></svg>
